solid ascii
 facet normal -0.330263 -0 -0.943889
  outer loop
   vertex 0.0081078 -0.0085 0.000797065
   vertex 0.0081078 0.0255 0.000797065
   vertex 0.0086373 0.0255 0.000611795
  endloop
 endfacet
 facet normal -0.372305 0 -0.92811
  outer loop
   vertex 0.0081078 -0.0085 0.000797065
   vertex 0.0075872 -0.0085 0.0010059
   vertex 0.0081078 0.0255 0.000797065
  endloop
 endfacet
 facet normal -0.287601 -0 -0.95775
  outer loop
   vertex 0.0086373 -0.0085 0.000611795
   vertex 0.0086373 0.0255 0.000611795
   vertex 0.00917455 0.0255 0.000450465
  endloop
 endfacet
 facet normal -0.330263 0 -0.943889
  outer loop
   vertex 0.0086373 -0.0085 0.000611795
   vertex 0.0081078 -0.0085 0.000797065
   vertex 0.0086373 0.0255 0.000611795
  endloop
 endfacet
 facet normal 0.999748 0 0.0224637
  outer loop
   vertex 0.0249874 -0.0085 0.0130608
   vertex 0.025 0.0255 0.0125
   vertex 0.0249874 0.0255 0.0130608
  endloop
 endfacet
 facet normal -0.244343 -0 -0.969689
  outer loop
   vertex 0.00917455 -0.0085 0.000450465
   vertex 0.00917455 0.0255 0.000450465
   vertex 0.0097185 0.0255 0.0003134
  endloop
 endfacet
 facet normal -0.287601 0 -0.95775
  outer loop
   vertex 0.00917455 -0.0085 0.000450465
   vertex 0.0086373 -0.0085 0.000611795
   vertex 0.00917455 0.0255 0.000450465
  endloop
 endfacet
 facet normal 0.999748 -0 0.0224637
  outer loop
   vertex 0.0249874 -0.0085 0.0130608
   vertex 0.025 -0.0085 0.0125
   vertex 0.025 0.0255 0.0125
  endloop
 endfacet
 facet normal 0.997739 0 0.067205
  outer loop
   vertex 0.0249497 -0.0085 0.0136205
   vertex 0.0249874 0.0255 0.0130608
   vertex 0.0249497 0.0255 0.0136205
  endloop
 endfacet
 facet normal -0.244343 0 -0.969689
  outer loop
   vertex 0.0097185 -0.0085 0.0003134
   vertex 0.00917455 -0.0085 0.000450465
   vertex 0.0097185 0.0255 0.0003134
  endloop
 endfacet
 facet normal 0.997739 -0 0.067205
  outer loop
   vertex 0.0249497 -0.0085 0.0136205
   vertex 0.0249874 -0.0085 0.0130608
   vertex 0.0249874 0.0255 0.0130608
  endloop
 endfacet
 facet normal -0.200571 0 -0.979679
  outer loop
   vertex 0.0102681 -0.0085 0.00020088
   vertex 0.0097185 0.0255 0.0003134
   vertex 0.0102681 0.0255 0.00020088
  endloop
 endfacet
 facet normal -0.156445 -0 -0.987687
  outer loop
   vertex 0.0102681 -0.0085 0.00020088
   vertex 0.0102681 0.0255 0.00020088
   vertex 0.0108221 0.0255 0.000113129
  endloop
 endfacet
 facet normal 0.993713 0 0.111956
  outer loop
   vertex 0.0248869 -0.0085 0.0141779
   vertex 0.0249497 0.0255 0.0136205
   vertex 0.0248869 0.0255 0.0141779
  endloop
 endfacet
 facet normal -0.200571 0 -0.979679
  outer loop
   vertex 0.0102681 -0.0085 0.00020088
   vertex 0.0097185 -0.0085 0.0003134
   vertex 0.0097185 0.0255 0.0003134
  endloop
 endfacet
 facet normal 0.993713 -0 0.111956
  outer loop
   vertex 0.0248869 -0.0085 0.0141779
   vertex 0.0249497 -0.0085 0.0136205
   vertex 0.0249497 0.0255 0.0136205
  endloop
 endfacet
 facet normal -0.111974 -0 -0.993711
  outer loop
   vertex 0.0108221 -0.0085 0.000113129
   vertex 0.0108221 0.0255 0.000113129
   vertex 0.0113795 0.0255 5.03195e-05
  endloop
 endfacet
 facet normal 0.987677 -0 0.156505
  outer loop
   vertex 0.0247991 -0.0085 0.014732
   vertex 0.0248869 -0.0085 0.0141779
   vertex 0.0248869 0.0255 0.0141779
  endloop
 endfacet
 facet normal -0.156445 0 -0.987687
  outer loop
   vertex 0.0108221 -0.0085 0.000113129
   vertex 0.0102681 -0.0085 0.00020088
   vertex 0.0108221 0.0255 0.000113129
  endloop
 endfacet
 facet normal 0.987677 0 0.156505
  outer loop
   vertex 0.0247991 -0.0085 0.014732
   vertex 0.0248869 0.0255 0.0141779
   vertex 0.0247991 0.0255 0.014732
  endloop
 endfacet
 facet normal -0.067267 -0 -0.997735
  outer loop
   vertex 0.0113795 -0.0085 5.03195e-05
   vertex 0.0113795 0.0255 5.03195e-05
   vertex 0.0119392 0.0255 1.25847e-05
  endloop
 endfacet
 facet normal -0.111974 0 -0.993711
  outer loop
   vertex 0.0113795 -0.0085 5.03195e-05
   vertex 0.0108221 -0.0085 0.000113129
   vertex 0.0113795 0.0255 5.03195e-05
  endloop
 endfacet
 facet normal 0.979679 -0 0.200571
  outer loop
   vertex 0.0246866 -0.0085 0.0152815
   vertex 0.0247991 -0.0085 0.014732
   vertex 0.0247991 0.0255 0.014732
  endloop
 endfacet
 facet normal 0.979679 0 0.200571
  outer loop
   vertex 0.0246866 -0.0085 0.0152815
   vertex 0.0247991 0.0255 0.014732
   vertex 0.0246866 0.0255 0.0152815
  endloop
 endfacet
 facet normal -0.022435 -0 -0.999748
  outer loop
   vertex 0.0119392 -0.0085 1.25847e-05
   vertex 0.0119392 0.0255 1.25847e-05
   vertex 0.0125 0.0255 0
  endloop
 endfacet
 facet normal -0.067267 0 -0.997735
  outer loop
   vertex 0.0119392 -0.0085 1.25847e-05
   vertex 0.0113795 -0.0085 5.03195e-05
   vertex 0.0119392 0.0255 1.25847e-05
  endloop
 endfacet
 facet normal 0.969679 -0 0.24438
  outer loop
   vertex 0.0245495 -0.0085 0.0158255
   vertex 0.0246866 -0.0085 0.0152815
   vertex 0.0246866 0.0255 0.0152815
  endloop
 endfacet
 facet normal 0.969679 0 0.24438
  outer loop
   vertex 0.0245495 -0.0085 0.0158255
   vertex 0.0246866 0.0255 0.0152815
   vertex 0.0245495 0.0255 0.0158255
  endloop
 endfacet
 facet normal 0.957758 0 0.287576
  outer loop
   vertex 0.0245495 -0.0085 0.0158255
   vertex 0.0245495 0.0255 0.0158255
   vertex 0.0243882 0.0255 0.0163627
  endloop
 endfacet
 facet normal -0.022435 -5.10048e-17 -0.999748
  outer loop
   vertex 0.0125 -0.0085 1.73472e-18
   vertex 0.0119392 -0.0085 1.25847e-05
   vertex 0.0125 0.0255 0
  endloop
 endfacet
 facet normal 0.022435 -5.10083e-17 -0.999748
  outer loop
   vertex 0.0125 -0.0085 1.73472e-18
   vertex 0.0125 0.0255 0
   vertex 0.0130608 0.0255 1.25847e-05
  endloop
 endfacet
 facet normal 0.957758 0 0.287576
  outer loop
   vertex 0.0243882 -0.0085 0.0163627
   vertex 0.0245495 -0.0085 0.0158255
   vertex 0.0243882 0.0255 0.0163627
  endloop
 endfacet
 facet normal 0.022435 0 -0.999748
  outer loop
   vertex 0.0130608 -0.0085 1.25847e-05
   vertex 0.0125 -0.0085 1.73472e-18
   vertex 0.0130608 0.0255 1.25847e-05
  endloop
 endfacet
 facet normal 0.0672669 0 -0.997735
  outer loop
   vertex 0.0130608 -0.0085 1.25847e-05
   vertex 0.0130608 0.0255 1.25847e-05
   vertex 0.0136205 0.0255 5.03195e-05
  endloop
 endfacet
 facet normal 0.943928 -0 0.330151
  outer loop
   vertex 0.024203 -0.0085 0.0168922
   vertex 0.0243882 -0.0085 0.0163627
   vertex 0.0243882 0.0255 0.0163627
  endloop
 endfacet
 facet normal 0.0672669 0 -0.997735
  outer loop
   vertex 0.0136205 -0.0085 5.03195e-05
   vertex 0.0130608 -0.0085 1.25847e-05
   vertex 0.0136205 0.0255 5.03195e-05
  endloop
 endfacet
 facet normal 0.943928 0 0.330151
  outer loop
   vertex 0.024203 -0.0085 0.0168922
   vertex 0.0243882 0.0255 0.0163627
   vertex 0.024203 0.0255 0.0168922
  endloop
 endfacet
 facet normal 0.111974 0 -0.993711
  outer loop
   vertex 0.0136205 -0.0085 5.03195e-05
   vertex 0.0136205 0.0255 5.03195e-05
   vertex 0.0141779 0.0255 0.000113129
  endloop
 endfacet
 facet normal 0.111974 0 -0.993711
  outer loop
   vertex 0.0141779 -0.0085 0.000113129
   vertex 0.0136205 -0.0085 5.03195e-05
   vertex 0.0141779 0.0255 0.000113129
  endloop
 endfacet
 facet normal 0.92807 -0 0.372407
  outer loop
   vertex 0.0239941 -0.0085 0.0174128
   vertex 0.024203 -0.0085 0.0168922
   vertex 0.024203 0.0255 0.0168922
  endloop
 endfacet
 facet normal 0.156417 0 -0.987691
  outer loop
   vertex 0.0141779 -0.0085 0.000113129
   vertex 0.0141779 0.0255 0.000113129
   vertex 0.014732 0.0255 0.00020088
  endloop
 endfacet
 facet normal 0.92807 0 0.372407
  outer loop
   vertex 0.0239941 -0.0085 0.0174128
   vertex 0.024203 0.0255 0.0168922
   vertex 0.0239941 0.0255 0.0174128
  endloop
 endfacet
 facet normal 0.910488 0 0.413535
  outer loop
   vertex 0.0239941 -0.0085 0.0174128
   vertex 0.0239941 0.0255 0.0174128
   vertex 0.0237621 0.0255 0.0179236
  endloop
 endfacet
 facet normal 0.156417 0 -0.987691
  outer loop
   vertex 0.014732 -0.0085 0.00020088
   vertex 0.0141779 -0.0085 0.000113129
   vertex 0.014732 0.0255 0.00020088
  endloop
 endfacet
 facet normal 0.910488 0 0.413535
  outer loop
   vertex 0.0237621 -0.0085 0.0179236
   vertex 0.0239941 -0.0085 0.0174128
   vertex 0.0237621 0.0255 0.0179236
  endloop
 endfacet
 facet normal 0.200606 0 -0.979672
  outer loop
   vertex 0.0152815 -0.0085 0.0003134
   vertex 0.014732 -0.0085 0.00020088
   vertex 0.014732 0.0255 0.00020088
  endloop
 endfacet
 facet normal 0.200606 0 -0.979672
  outer loop
   vertex 0.0152815 -0.0085 0.0003134
   vertex 0.014732 0.0255 0.00020088
   vertex 0.0152815 0.0255 0.0003134
  endloop
 endfacet
 facet normal 0.244322 0 -0.969694
  outer loop
   vertex 0.0152815 -0.0085 0.0003134
   vertex 0.0152815 0.0255 0.0003134
   vertex 0.0158255 0.0255 0.000450465
  endloop
 endfacet
 facet normal 0.890979 -0 0.454045
  outer loop
   vertex 0.0235074 -0.0085 0.0184234
   vertex 0.0237621 -0.0085 0.0179236
   vertex 0.0237621 0.0255 0.0179236
  endloop
 endfacet
 facet normal 0.890979 0 0.454045
  outer loop
   vertex 0.0235074 -0.0085 0.0184234
   vertex 0.0237621 0.0255 0.0179236
   vertex 0.0235074 0.0255 0.0184234
  endloop
 endfacet
 facet normal 0.244322 0 -0.969694
  outer loop
   vertex 0.0158255 -0.0085 0.000450465
   vertex 0.0152815 -0.0085 0.0003134
   vertex 0.0158255 0.0255 0.000450465
  endloop
 endfacet
 facet normal 0.287626 0 -0.957743
  outer loop
   vertex 0.0158255 -0.0085 0.000450465
   vertex 0.0158255 0.0255 0.000450465
   vertex 0.0163627 0.0255 0.000611795
  endloop
 endfacet
 facet normal 0.869731 -0 0.493527
  outer loop
   vertex 0.0232306 -0.0085 0.0189112
   vertex 0.0235074 -0.0085 0.0184234
   vertex 0.0235074 0.0255 0.0184234
  endloop
 endfacet
 facet normal 0.869731 0 0.493527
  outer loop
   vertex 0.0232306 -0.0085 0.0189112
   vertex 0.0235074 0.0255 0.0184234
   vertex 0.0232306 0.0255 0.0189112
  endloop
 endfacet
 facet normal 0.287626 0 -0.957743
  outer loop
   vertex 0.0163627 -0.0085 0.000611795
   vertex 0.0158255 -0.0085 0.000450465
   vertex 0.0163627 0.0255 0.000611795
  endloop
 endfacet
 facet normal 0.330263 0 -0.943889
  outer loop
   vertex 0.0163627 -0.0085 0.000611795
   vertex 0.0163627 0.0255 0.000611795
   vertex 0.0168922 0.0255 0.000797065
  endloop
 endfacet
 facet normal 0.846694 -0 0.53208
  outer loop
   vertex 0.0229321 -0.0085 0.0193862
   vertex 0.0232306 -0.0085 0.0189112
   vertex 0.0232306 0.0255 0.0189112
  endloop
 endfacet
 facet normal 0.846694 0 0.53208
  outer loop
   vertex 0.0229321 -0.0085 0.0193862
   vertex 0.0232306 0.0255 0.0189112
   vertex 0.0229321 0.0255 0.0193862
  endloop
 endfacet
 facet normal 0.330263 0 -0.943889
  outer loop
   vertex 0.0168922 -0.0085 0.000797065
   vertex 0.0163627 -0.0085 0.000611795
   vertex 0.0168922 0.0255 0.000797065
  endloop
 endfacet
 facet normal 0.372305 0 -0.92811
  outer loop
   vertex 0.0168922 -0.0085 0.000797065
   vertex 0.0168922 0.0255 0.000797065
   vertex 0.0174128 0.0255 0.0010059
  endloop
 endfacet
 facet normal 0.372305 0 -0.92811
  outer loop
   vertex 0.0174128 -0.0085 0.0010059
   vertex 0.0168922 -0.0085 0.000797065
   vertex 0.0174128 0.0255 0.0010059
  endloop
 endfacet
 facet normal 0.822045 -0 0.569422
  outer loop
   vertex 0.0226127 -0.0085 0.0198473
   vertex 0.0229321 -0.0085 0.0193862
   vertex 0.0229321 0.0255 0.0193862
  endloop
 endfacet
 facet normal 0.822045 0 0.569422
  outer loop
   vertex 0.0226127 -0.0085 0.0198473
   vertex 0.0229321 0.0255 0.0193862
   vertex 0.0226127 0.0255 0.0198473
  endloop
 endfacet
 facet normal 0.41352 0 -0.910495
  outer loop
   vertex 0.0174128 -0.0085 0.0010059
   vertex 0.0174128 0.0255 0.0010059
   vertex 0.0179236 0.0255 0.00123789
  endloop
 endfacet
 facet normal 0.41352 0 -0.910495
  outer loop
   vertex 0.0179236 -0.0085 0.00123789
   vertex 0.0174128 -0.0085 0.0010059
   vertex 0.0179236 0.0255 0.00123789
  endloop
 endfacet
 facet normal 0.454002 0 -0.891001
  outer loop
   vertex 0.0179236 -0.0085 0.00123789
   vertex 0.0179236 0.0255 0.00123789
   vertex 0.0184234 0.0255 0.00149256
  endloop
 endfacet
 facet normal 0.795636 -0 0.605774
  outer loop
   vertex 0.0222729 -0.0085 0.0202936
   vertex 0.0226127 -0.0085 0.0198473
   vertex 0.0226127 0.0255 0.0198473
  endloop
 endfacet
 facet normal 0.795636 0 0.605774
  outer loop
   vertex 0.0222729 -0.0085 0.0202936
   vertex 0.0226127 0.0255 0.0198473
   vertex 0.0222729 0.0255 0.0202936
  endloop
 endfacet
 facet normal 0.767709 0 0.640798
  outer loop
   vertex 0.0222729 -0.0085 0.0202936
   vertex 0.0222729 0.0255 0.0202936
   vertex 0.0219134 0.0255 0.0207243
  endloop
 endfacet
 facet normal 0.454002 0 -0.891001
  outer loop
   vertex 0.0184234 -0.0085 0.00149256
   vertex 0.0179236 -0.0085 0.00123789
   vertex 0.0184234 0.0255 0.00149256
  endloop
 endfacet
 facet normal 0.493567 0 -0.869708
  outer loop
   vertex 0.0184234 -0.0085 0.00149256
   vertex 0.0184234 0.0255 0.00149256
   vertex 0.0189112 0.0255 0.00176939
  endloop
 endfacet
 facet normal 0.767709 0 0.640798
  outer loop
   vertex 0.0219134 -0.0085 0.0207243
   vertex 0.0222729 -0.0085 0.0202936
   vertex 0.0219134 0.0255 0.0207243
  endloop
 endfacet
 facet normal 0.493567 0 -0.869708
  outer loop
   vertex 0.0189112 -0.0085 0.00176939
   vertex 0.0184234 -0.0085 0.00149256
   vertex 0.0189112 0.0255 0.00176939
  endloop
 endfacet
 facet normal 0.532016 0 -0.846734
  outer loop
   vertex 0.0189112 -0.0085 0.00176939
   vertex 0.0189112 0.0255 0.00176939
   vertex 0.0193862 0.0255 0.00206784
  endloop
 endfacet
 facet normal 0.73804 -0 0.674757
  outer loop
   vertex 0.0215349 -0.0085 0.0211383
   vertex 0.0219134 -0.0085 0.0207243
   vertex 0.0219134 0.0255 0.0207243
  endloop
 endfacet
 facet normal 0.73804 0 0.674757
  outer loop
   vertex 0.0215349 -0.0085 0.0211383
   vertex 0.0219134 0.0255 0.0207243
   vertex 0.0215349 0.0255 0.0211383
  endloop
 endfacet
 facet normal 0.532016 0 -0.846734
  outer loop
   vertex 0.0193862 -0.0085 0.00206784
   vertex 0.0189112 -0.0085 0.00176939
   vertex 0.0193862 0.0255 0.00206784
  endloop
 endfacet
 facet normal 0.569484 0 -0.822003
  outer loop
   vertex 0.0193862 -0.0085 0.00206784
   vertex 0.0193862 0.0255 0.00206784
   vertex 0.0198473 0.0255 0.00238729
  endloop
 endfacet
 facet normal 0.707107 0 0.707107
  outer loop
   vertex 0.0211383 -0.0085 0.0215349
   vertex 0.0215349 0.0255 0.0211383
   vertex 0.0211383 0.0255 0.0215349
  endloop
 endfacet
 facet normal 0.707107 -0 0.707107
  outer loop
   vertex 0.0211383 -0.0085 0.0215349
   vertex 0.0215349 -0.0085 0.0211383
   vertex 0.0215349 0.0255 0.0211383
  endloop
 endfacet
 facet normal 0.569484 0 -0.822003
  outer loop
   vertex 0.0198473 -0.0085 0.00238729
   vertex 0.0193862 -0.0085 0.00206784
   vertex 0.0198473 0.0255 0.00238729
  endloop
 endfacet
 facet normal 0.674757 0 0.73804
  outer loop
   vertex 0.0207243 -0.0085 0.0219134
   vertex 0.0211383 0.0255 0.0215349
   vertex 0.0207243 0.0255 0.0219134
  endloop
 endfacet
 facet normal 0.605796 0 -0.79562
  outer loop
   vertex 0.0202936 -0.0085 0.00272711
   vertex 0.0198473 0.0255 0.00238729
   vertex 0.0202936 0.0255 0.00272711
  endloop
 endfacet
 facet normal 0.640798 0 -0.767709
  outer loop
   vertex 0.0202936 -0.0085 0.00272711
   vertex 0.0202936 0.0255 0.00272711
   vertex 0.0207243 0.0255 0.00308661
  endloop
 endfacet
 facet normal 0.605796 0 -0.79562
  outer loop
   vertex 0.0202936 -0.0085 0.00272711
   vertex 0.0198473 -0.0085 0.00238729
   vertex 0.0198473 0.0255 0.00238729
  endloop
 endfacet
 facet normal 0.674757 -0 0.73804
  outer loop
   vertex 0.0207243 -0.0085 0.0219134
   vertex 0.0211383 -0.0085 0.0215349
   vertex 0.0211383 0.0255 0.0215349
  endloop
 endfacet
 facet normal 0.674717 0 -0.738076
  outer loop
   vertex 0.0207243 -0.0085 0.00308661
   vertex 0.0207243 0.0255 0.00308661
   vertex 0.0211383 0.0255 0.00346507
  endloop
 endfacet
 facet normal 0.640798 0 0.767709
  outer loop
   vertex 0.0202936 -0.0085 0.0222729
   vertex 0.0207243 0.0255 0.0219134
   vertex 0.0202936 0.0255 0.0222729
  endloop
 endfacet
 facet normal 0.640798 0 -0.767709
  outer loop
   vertex 0.0207243 -0.0085 0.00308661
   vertex 0.0202936 -0.0085 0.00272711
   vertex 0.0207243 0.0255 0.00308661
  endloop
 endfacet
 facet normal 0.640798 -0 0.767709
  outer loop
   vertex 0.0202936 -0.0085 0.0222729
   vertex 0.0207243 -0.0085 0.0219134
   vertex 0.0207243 0.0255 0.0219134
  endloop
 endfacet
 facet normal 0.707151 0 -0.707062
  outer loop
   vertex 0.0211383 -0.0085 0.00346507
   vertex 0.0211383 0.0255 0.00346507
   vertex 0.0215349 0.0255 0.00386172
  endloop
 endfacet
 facet normal 0.674717 0 -0.738076
  outer loop
   vertex 0.0211383 -0.0085 0.00346507
   vertex 0.0207243 -0.0085 0.00308661
   vertex 0.0211383 0.0255 0.00346507
  endloop
 endfacet
 facet normal 0.605774 0 0.795636
  outer loop
   vertex 0.0198473 -0.0085 0.0226127
   vertex 0.0202936 0.0255 0.0222729
   vertex 0.0198473 0.0255 0.0226127
  endloop
 endfacet
 facet normal 0.569422 0 0.822045
  outer loop
   vertex 0.0198473 -0.0085 0.0226127
   vertex 0.0198473 0.0255 0.0226127
   vertex 0.0193862 0.0255 0.0229321
  endloop
 endfacet
 facet normal 0.605774 -0 0.795636
  outer loop
   vertex 0.0198473 -0.0085 0.0226127
   vertex 0.0202936 -0.0085 0.0222729
   vertex 0.0202936 0.0255 0.0222729
  endloop
 endfacet
 facet normal 0.738074 0 -0.67472
  outer loop
   vertex 0.0215349 -0.0085 0.00386172
   vertex 0.0215349 0.0255 0.00386172
   vertex 0.0219134 0.0255 0.00427576
  endloop
 endfacet
 facet normal 0.707151 0 -0.707062
  outer loop
   vertex 0.0215349 -0.0085 0.00386172
   vertex 0.0211383 -0.0085 0.00346507
   vertex 0.0215349 0.0255 0.00386172
  endloop
 endfacet
 facet normal 0.569422 0 0.822045
  outer loop
   vertex 0.0193862 -0.0085 0.0229321
   vertex 0.0198473 -0.0085 0.0226127
   vertex 0.0193862 0.0255 0.0229321
  endloop
 endfacet
 facet normal 0.767644 0 -0.640877
  outer loop
   vertex 0.0219134 -0.0085 0.00427576
   vertex 0.0219134 0.0255 0.00427576
   vertex 0.0222729 0.0255 0.00470637
  endloop
 endfacet
 facet normal 0.738074 0 -0.67472
  outer loop
   vertex 0.0219134 -0.0085 0.00427576
   vertex 0.0215349 -0.0085 0.00386172
   vertex 0.0219134 0.0255 0.00427576
  endloop
 endfacet
 facet normal 0.53208 -0 0.846694
  outer loop
   vertex 0.0189112 -0.0085 0.0232306
   vertex 0.0193862 -0.0085 0.0229321
   vertex 0.0193862 0.0255 0.0229321
  endloop
 endfacet
 facet normal 0.53208 0 0.846694
  outer loop
   vertex 0.0189112 -0.0085 0.0232306
   vertex 0.0193862 0.0255 0.0229321
   vertex 0.0189112 0.0255 0.0232306
  endloop
 endfacet
 facet normal 0.493527 0 0.869731
  outer loop
   vertex 0.0189112 -0.0085 0.0232306
   vertex 0.0189112 0.0255 0.0232306
   vertex 0.0184234 0.0255 0.0235074
  endloop
 endfacet
 facet normal 0.795655 0 -0.60575
  outer loop
   vertex 0.0222729 -0.0085 0.00470637
   vertex 0.0222729 0.0255 0.00470637
   vertex 0.0226127 0.0255 0.0051527
  endloop
 endfacet
 facet normal 0.767644 0 -0.640877
  outer loop
   vertex 0.0222729 -0.0085 0.00470637
   vertex 0.0219134 -0.0085 0.00427576
   vertex 0.0222729 0.0255 0.00470637
  endloop
 endfacet
 facet normal 0.454045 0 0.890979
  outer loop
   vertex 0.0184234 -0.0085 0.0235074
   vertex 0.0184234 0.0255 0.0235074
   vertex 0.0179236 0.0255 0.0237621
  endloop
 endfacet
 facet normal 0.822046 0 -0.569422
  outer loop
   vertex 0.0226127 -0.0085 0.0051527
   vertex 0.0226127 0.0255 0.0051527
   vertex 0.0229321 0.0255 0.0056138
  endloop
 endfacet
 facet normal 0.493527 0 0.869731
  outer loop
   vertex 0.0184234 -0.0085 0.0235074
   vertex 0.0189112 -0.0085 0.0232306
   vertex 0.0184234 0.0255 0.0235074
  endloop
 endfacet
 facet normal 0.795655 0 -0.60575
  outer loop
   vertex 0.0226127 -0.0085 0.0051527
   vertex 0.0222729 -0.0085 0.00470637
   vertex 0.0226127 0.0255 0.0051527
  endloop
 endfacet
 facet normal 0.846669 0 -0.532121
  outer loop
   vertex 0.0229321 -0.0085 0.0056138
   vertex 0.0229321 0.0255 0.0056138
   vertex 0.0232306 0.0255 0.00608875
  endloop
 endfacet
 facet normal 0.454045 0 0.890979
  outer loop
   vertex 0.0179236 -0.0085 0.0237621
   vertex 0.0184234 -0.0085 0.0235074
   vertex 0.0179236 0.0255 0.0237621
  endloop
 endfacet
 facet normal 0.822046 0 -0.569422
  outer loop
   vertex 0.0229321 -0.0085 0.0056138
   vertex 0.0226127 -0.0085 0.0051527
   vertex 0.0229321 0.0255 0.0056138
  endloop
 endfacet
 facet normal 0.413535 0 0.910488
  outer loop
   vertex 0.0174128 -0.0085 0.0239941
   vertex 0.0179236 0.0255 0.0237621
   vertex 0.0174128 0.0255 0.0239941
  endloop
 endfacet
 facet normal 0.372407 0 0.92807
  outer loop
   vertex 0.0174128 -0.0085 0.0239941
   vertex 0.0174128 0.0255 0.0239941
   vertex 0.0168922 0.0255 0.024203
  endloop
 endfacet
 facet normal 0.846669 0 -0.532121
  outer loop
   vertex 0.0232306 -0.0085 0.00608875
   vertex 0.0229321 -0.0085 0.0056138
   vertex 0.0232306 0.0255 0.00608875
  endloop
 endfacet
 facet normal 0.413535 -0 0.910488
  outer loop
   vertex 0.0174128 -0.0085 0.0239941
   vertex 0.0179236 -0.0085 0.0237621
   vertex 0.0179236 0.0255 0.0237621
  endloop
 endfacet
 facet normal 0.869775 0 -0.493449
  outer loop
   vertex 0.0235074 -0.0085 0.00657665
   vertex 0.0232306 0.0255 0.00608875
   vertex 0.0235074 0.0255 0.00657665
  endloop
 endfacet
 facet normal 0.890978 0 -0.454046
  outer loop
   vertex 0.0235074 -0.0085 0.00657665
   vertex 0.0235074 0.0255 0.00657665
   vertex 0.0237621 0.0255 0.00707645
  endloop
 endfacet
 facet normal 0.372407 0 0.92807
  outer loop
   vertex 0.0168922 -0.0085 0.024203
   vertex 0.0174128 -0.0085 0.0239941
   vertex 0.0168922 0.0255 0.024203
  endloop
 endfacet
 facet normal 0.869775 0 -0.493449
  outer loop
   vertex 0.0235074 -0.0085 0.00657665
   vertex 0.0232306 -0.0085 0.00608875
   vertex 0.0232306 0.0255 0.00608875
  endloop
 endfacet
 facet normal 0.890978 0 -0.454046
  outer loop
   vertex 0.0237621 -0.0085 0.00707645
   vertex 0.0235074 -0.0085 0.00657665
   vertex 0.0237621 0.0255 0.00707645
  endloop
 endfacet
 facet normal 0.330151 0 0.943928
  outer loop
   vertex 0.0163627 -0.0085 0.0243882
   vertex 0.0168922 0.0255 0.024203
   vertex 0.0163627 0.0255 0.0243882
  endloop
 endfacet
 facet normal 0.910473 0 -0.413568
  outer loop
   vertex 0.0237621 -0.0085 0.00707645
   vertex 0.0237621 0.0255 0.00707645
   vertex 0.0239941 0.0255 0.0075872
  endloop
 endfacet
 facet normal 0.287576 0 0.957758
  outer loop
   vertex 0.0163627 -0.0085 0.0243882
   vertex 0.0163627 0.0255 0.0243882
   vertex 0.0158255 0.0255 0.0245495
  endloop
 endfacet
 facet normal 0.330151 -0 0.943928
  outer loop
   vertex 0.0163627 -0.0085 0.0243882
   vertex 0.0168922 -0.0085 0.024203
   vertex 0.0168922 0.0255 0.024203
  endloop
 endfacet
 facet normal 0.910473 0 -0.413568
  outer loop
   vertex 0.0239941 -0.0085 0.0075872
   vertex 0.0237621 -0.0085 0.00707645
   vertex 0.0239941 0.0255 0.0075872
  endloop
 endfacet
 facet normal 0.92807 0 -0.372407
  outer loop
   vertex 0.0239941 -0.0085 0.0075872
   vertex 0.0239941 0.0255 0.0075872
   vertex 0.024203 0.0255 0.0081078
  endloop
 endfacet
 facet normal 0.287576 0 0.957758
  outer loop
   vertex 0.0158255 -0.0085 0.0245495
   vertex 0.0163627 -0.0085 0.0243882
   vertex 0.0158255 0.0255 0.0245495
  endloop
 endfacet
 facet normal 0.92807 0 -0.372407
  outer loop
   vertex 0.024203 -0.0085 0.0081078
   vertex 0.0239941 -0.0085 0.0075872
   vertex 0.024203 0.0255 0.0081078
  endloop
 endfacet
 facet normal 0.943928 0 -0.330151
  outer loop
   vertex 0.024203 -0.0085 0.0081078
   vertex 0.024203 0.0255 0.0081078
   vertex 0.0243882 0.0255 0.0086373
  endloop
 endfacet
 facet normal 0.24438 -0 0.969679
  outer loop
   vertex 0.0152815 -0.0085 0.0246866
   vertex 0.0158255 -0.0085 0.0245495
   vertex 0.0158255 0.0255 0.0245495
  endloop
 endfacet
 facet normal 0.24438 0 0.969679
  outer loop
   vertex 0.0152815 -0.0085 0.0246866
   vertex 0.0158255 0.0255 0.0245495
   vertex 0.0152815 0.0255 0.0246866
  endloop
 endfacet
 facet normal 0.200571 0 0.979679
  outer loop
   vertex 0.0152815 -0.0085 0.0246866
   vertex 0.0152815 0.0255 0.0246866
   vertex 0.014732 0.0255 0.0247991
  endloop
 endfacet
 facet normal 0.943928 0 -0.330151
  outer loop
   vertex 0.0243882 -0.0085 0.0086373
   vertex 0.024203 -0.0085 0.0081078
   vertex 0.0243882 0.0255 0.0086373
  endloop
 endfacet
 facet normal 0.957765 0 -0.287551
  outer loop
   vertex 0.0243882 -0.0085 0.0086373
   vertex 0.0243882 0.0255 0.0086373
   vertex 0.0245495 0.0255 0.00917455
  endloop
 endfacet
 facet normal 0.200571 0 0.979679
  outer loop
   vertex 0.014732 -0.0085 0.0247991
   vertex 0.0152815 -0.0085 0.0246866
   vertex 0.014732 0.0255 0.0247991
  endloop
 endfacet
 facet normal 0.957765 0 -0.287551
  outer loop
   vertex 0.0245495 -0.0085 0.00917455
   vertex 0.0243882 -0.0085 0.0086373
   vertex 0.0245495 0.0255 0.00917455
  endloop
 endfacet
 facet normal 0.156505 0 0.987677
  outer loop
   vertex 0.014732 -0.0085 0.0247991
   vertex 0.014732 0.0255 0.0247991
   vertex 0.0141779 0.0255 0.0248869
  endloop
 endfacet
 facet normal 0.969674 0 -0.244402
  outer loop
   vertex 0.0245495 -0.0085 0.00917455
   vertex 0.0245495 0.0255 0.00917455
   vertex 0.0246866 0.0255 0.0097185
  endloop
 endfacet
 facet normal 0.969674 0 -0.244402
  outer loop
   vertex 0.0246866 -0.0085 0.0097185
   vertex 0.0245495 -0.0085 0.00917455
   vertex 0.0246866 0.0255 0.0097185
  endloop
 endfacet
 facet normal 0.156505 0 0.987677
  outer loop
   vertex 0.0141779 -0.0085 0.0248869
   vertex 0.014732 -0.0085 0.0247991
   vertex 0.0141779 0.0255 0.0248869
  endloop
 endfacet
 facet normal 0.979686 0 -0.200536
  outer loop
   vertex 0.0246866 -0.0085 0.0097185
   vertex 0.0246866 0.0255 0.0097185
   vertex 0.0247991 0.0255 0.0102681
  endloop
 endfacet
 facet normal 0.979686 0 -0.200536
  outer loop
   vertex 0.0247991 -0.0085 0.0102681
   vertex 0.0246866 -0.0085 0.0097185
   vertex 0.0247991 0.0255 0.0102681
  endloop
 endfacet
 facet normal 0.111956 -0 0.993713
  outer loop
   vertex 0.0136205 -0.0085 0.0249497
   vertex 0.0141779 -0.0085 0.0248869
   vertex 0.0141779 0.0255 0.0248869
  endloop
 endfacet
 facet normal 0.987673 0 -0.156533
  outer loop
   vertex 0.0247991 -0.0085 0.0102681
   vertex 0.0247991 0.0255 0.0102681
   vertex 0.0248869 0.0255 0.0108221
  endloop
 endfacet
 facet normal 0.111956 0 0.993713
  outer loop
   vertex 0.0136205 -0.0085 0.0249497
   vertex 0.0141779 0.0255 0.0248869
   vertex 0.0136205 0.0255 0.0249497
  endloop
 endfacet
 facet normal 0.067205 0 0.997739
  outer loop
   vertex 0.0136205 -0.0085 0.0249497
   vertex 0.0136205 0.0255 0.0249497
   vertex 0.0130608 0.0255 0.0249874
  endloop
 endfacet
 facet normal 0.987673 0 -0.156533
  outer loop
   vertex 0.0248869 -0.0085 0.0108221
   vertex 0.0247991 -0.0085 0.0102681
   vertex 0.0248869 0.0255 0.0108221
  endloop
 endfacet
 facet normal 0.993713 0 -0.111956
  outer loop
   vertex 0.0248869 -0.0085 0.0108221
   vertex 0.0248869 0.0255 0.0108221
   vertex 0.0249497 0.0255 0.0113795
  endloop
 endfacet
 facet normal 0.067205 0 0.997739
  outer loop
   vertex 0.0130608 -0.0085 0.0249874
   vertex 0.0136205 -0.0085 0.0249497
   vertex 0.0130608 0.0255 0.0249874
  endloop
 endfacet
 facet normal 0.993713 0 -0.111956
  outer loop
   vertex 0.0249497 -0.0085 0.0113795
   vertex 0.0248869 -0.0085 0.0108221
   vertex 0.0249497 0.0255 0.0113795
  endloop
 endfacet
 facet normal 0.0224637 -0 0.999748
  outer loop
   vertex 0.0125 -0.0085 0.025
   vertex 0.0130608 -0.0085 0.0249874
   vertex 0.0130608 0.0255 0.0249874
  endloop
 endfacet
 facet normal 0.0224637 0 0.999748
  outer loop
   vertex 0.0125 -0.0085 0.025
   vertex 0.0130608 0.0255 0.0249874
   vertex 0.0125 0.0255 0.025
  endloop
 endfacet
 facet normal -0.0224636 0 0.999748
  outer loop
   vertex 0.0125 -0.0085 0.025
   vertex 0.0125 0.0255 0.025
   vertex 0.0119392 0.0255 0.0249874
  endloop
 endfacet
 facet normal 0.997739 0 -0.0672052
  outer loop
   vertex 0.0249874 -0.0085 0.0119392
   vertex 0.0249497 -0.0085 0.0113795
   vertex 0.0249497 0.0255 0.0113795
  endloop
 endfacet
 facet normal 0.997739 0 -0.0672052
  outer loop
   vertex 0.0249874 -0.0085 0.0119392
   vertex 0.0249497 0.0255 0.0113795
   vertex 0.0249874 0.0255 0.0119392
  endloop
 endfacet
 facet normal 0.999748 0 -0.0224636
  outer loop
   vertex 0.0249874 -0.0085 0.0119392
   vertex 0.0249874 0.0255 0.0119392
   vertex 0.025 0.0255 0.0125
  endloop
 endfacet
 facet normal 0.999748 0 -0.0224636
  outer loop
   vertex 0.025 -0.0085 0.0125
   vertex 0.0249874 -0.0085 0.0119392
   vertex 0.025 0.0255 0.0125
  endloop
 endfacet
 facet normal -0.0224636 0 0.999748
  outer loop
   vertex 0.0119392 -0.0085 0.0249874
   vertex 0.0125 -0.0085 0.025
   vertex 0.0119392 0.0255 0.0249874
  endloop
 endfacet
 facet normal -0.0672052 0 0.997739
  outer loop
   vertex 0.0113795 -0.0085 0.0249497
   vertex 0.0119392 -0.0085 0.0249874
   vertex 0.0119392 0.0255 0.0249874
  endloop
 endfacet
 facet normal -0.0672052 0 0.997739
  outer loop
   vertex 0.0113795 -0.0085 0.0249497
   vertex 0.0119392 0.0255 0.0249874
   vertex 0.0113795 0.0255 0.0249497
  endloop
 endfacet
 facet normal -0.111956 0 0.993713
  outer loop
   vertex 0.0113795 -0.0085 0.0249497
   vertex 0.0113795 0.0255 0.0249497
   vertex 0.0108221 0.0255 0.0248869
  endloop
 endfacet
 facet normal -0.111956 0 0.993713
  outer loop
   vertex 0.0108221 -0.0085 0.0248869
   vertex 0.0113795 -0.0085 0.0249497
   vertex 0.0108221 0.0255 0.0248869
  endloop
 endfacet
 facet normal -0.156533 0 0.987673
  outer loop
   vertex 0.0108221 -0.0085 0.0248869
   vertex 0.0108221 0.0255 0.0248869
   vertex 0.0102681 0.0255 0.0247991
  endloop
 endfacet
 facet normal -0.156533 0 0.987673
  outer loop
   vertex 0.0102681 -0.0085 0.0247991
   vertex 0.0108221 -0.0085 0.0248869
   vertex 0.0102681 0.0255 0.0247991
  endloop
 endfacet
 facet normal -0.200536 0 0.979686
  outer loop
   vertex 0.0097185 -0.0085 0.0246866
   vertex 0.0102681 -0.0085 0.0247991
   vertex 0.0102681 0.0255 0.0247991
  endloop
 endfacet
 facet normal -0.200536 0 0.979686
  outer loop
   vertex 0.0097185 -0.0085 0.0246866
   vertex 0.0102681 0.0255 0.0247991
   vertex 0.0097185 0.0255 0.0246866
  endloop
 endfacet
 facet normal -0.244402 0 0.969674
  outer loop
   vertex 0.0097185 -0.0085 0.0246866
   vertex 0.0097185 0.0255 0.0246866
   vertex 0.00917455 0.0255 0.0245495
  endloop
 endfacet
 facet normal -0.244402 0 0.969674
  outer loop
   vertex 0.00917455 -0.0085 0.0245495
   vertex 0.0097185 -0.0085 0.0246866
   vertex 0.00917455 0.0255 0.0245495
  endloop
 endfacet
 facet normal -0.287551 0 0.957765
  outer loop
   vertex 0.0086373 -0.0085 0.0243882
   vertex 0.00917455 -0.0085 0.0245495
   vertex 0.00917455 0.0255 0.0245495
  endloop
 endfacet
 facet normal -0.287551 0 0.957765
  outer loop
   vertex 0.0086373 -0.0085 0.0243882
   vertex 0.00917455 0.0255 0.0245495
   vertex 0.0086373 0.0255 0.0243882
  endloop
 endfacet
 facet normal -0.330151 0 0.943928
  outer loop
   vertex 0.0086373 -0.0085 0.0243882
   vertex 0.0086373 0.0255 0.0243882
   vertex 0.0081078 0.0255 0.024203
  endloop
 endfacet
 facet normal -0.330151 0 0.943928
  outer loop
   vertex 0.0081078 -0.0085 0.024203
   vertex 0.0086373 -0.0085 0.0243882
   vertex 0.0081078 0.0255 0.024203
  endloop
 endfacet
 facet normal -0.372407 0 0.92807
  outer loop
   vertex 0.0081078 -0.0085 0.024203
   vertex 0.0081078 0.0255 0.024203
   vertex 0.0075872 0.0255 0.0239941
  endloop
 endfacet
 facet normal -0.372407 0 0.92807
  outer loop
   vertex 0.0075872 -0.0085 0.0239941
   vertex 0.0081078 -0.0085 0.024203
   vertex 0.0075872 0.0255 0.0239941
  endloop
 endfacet
 facet normal -0.413568 0 0.910473
  outer loop
   vertex 0.0075872 -0.0085 0.0239941
   vertex 0.0075872 0.0255 0.0239941
   vertex 0.00707645 0.0255 0.0237621
  endloop
 endfacet
 facet normal -0.413568 0 0.910473
  outer loop
   vertex 0.00707645 -0.0085 0.0237621
   vertex 0.0075872 -0.0085 0.0239941
   vertex 0.00707645 0.0255 0.0237621
  endloop
 endfacet
 facet normal -0.454046 0 0.890978
  outer loop
   vertex 0.00657665 -0.0085 0.0235074
   vertex 0.00707645 -0.0085 0.0237621
   vertex 0.00707645 0.0255 0.0237621
  endloop
 endfacet
 facet normal -0.454046 0 0.890978
  outer loop
   vertex 0.00657665 -0.0085 0.0235074
   vertex 0.00707645 0.0255 0.0237621
   vertex 0.00657665 0.0255 0.0235074
  endloop
 endfacet
 facet normal -0.493449 0 0.869775
  outer loop
   vertex 0.00657665 -0.0085 0.0235074
   vertex 0.00657665 0.0255 0.0235074
   vertex 0.00608875 0.0255 0.0232306
  endloop
 endfacet
 facet normal -0.493449 0 0.869775
  outer loop
   vertex 0.00608875 -0.0085 0.0232306
   vertex 0.00657665 -0.0085 0.0235074
   vertex 0.00608875 0.0255 0.0232306
  endloop
 endfacet
 facet normal -0.532121 0 0.846669
  outer loop
   vertex 0.00608875 -0.0085 0.0232306
   vertex 0.00608875 0.0255 0.0232306
   vertex 0.0056138 0.0255 0.0229321
  endloop
 endfacet
 facet normal -0.532121 0 0.846669
  outer loop
   vertex 0.0056138 -0.0085 0.0229321
   vertex 0.00608875 -0.0085 0.0232306
   vertex 0.0056138 0.0255 0.0229321
  endloop
 endfacet
 facet normal -0.569422 0 0.822046
  outer loop
   vertex 0.0056138 -0.0085 0.0229321
   vertex 0.0056138 0.0255 0.0229321
   vertex 0.0051527 0.0255 0.0226127
  endloop
 endfacet
 facet normal -0.569422 0 0.822046
  outer loop
   vertex 0.0051527 -0.0085 0.0226127
   vertex 0.0056138 -0.0085 0.0229321
   vertex 0.0051527 0.0255 0.0226127
  endloop
 endfacet
 facet normal -0.60575 0 0.795655
  outer loop
   vertex 0.0051527 -0.0085 0.0226127
   vertex 0.0051527 0.0255 0.0226127
   vertex 0.00470637 0.0255 0.0222729
  endloop
 endfacet
 facet normal -0.60575 0 0.795655
  outer loop
   vertex 0.00470637 -0.0085 0.0222729
   vertex 0.0051527 -0.0085 0.0226127
   vertex 0.00470637 0.0255 0.0222729
  endloop
 endfacet
 facet normal -0.640877 0 0.767644
  outer loop
   vertex 0.00427576 -0.0085 0.0219134
   vertex 0.00470637 -0.0085 0.0222729
   vertex 0.00470637 0.0255 0.0222729
  endloop
 endfacet
 facet normal -0.640877 0 0.767644
  outer loop
   vertex 0.00427576 -0.0085 0.0219134
   vertex 0.00470637 0.0255 0.0222729
   vertex 0.00427576 0.0255 0.0219134
  endloop
 endfacet
 facet normal -0.67472 0 0.738074
  outer loop
   vertex 0.00427576 -0.0085 0.0219134
   vertex 0.00427576 0.0255 0.0219134
   vertex 0.00386172 0.0255 0.0215349
  endloop
 endfacet
 facet normal -0.707062 0 0.707151
  outer loop
   vertex 0.00386172 -0.0085 0.0215349
   vertex 0.00386172 0.0255 0.0215349
   vertex 0.00346507 0.0255 0.0211383
  endloop
 endfacet
 facet normal -0.67472 0 0.738074
  outer loop
   vertex 0.00386172 -0.0085 0.0215349
   vertex 0.00427576 -0.0085 0.0219134
   vertex 0.00386172 0.0255 0.0215349
  endloop
 endfacet
 facet normal -0.738076 0 0.674717
  outer loop
   vertex 0.00346507 -0.0085 0.0211383
   vertex 0.00346507 0.0255 0.0211383
   vertex 0.00308661 0.0255 0.0207243
  endloop
 endfacet
 facet normal -0.707062 0 0.707151
  outer loop
   vertex 0.00346507 -0.0085 0.0211383
   vertex 0.00386172 -0.0085 0.0215349
   vertex 0.00346507 0.0255 0.0211383
  endloop
 endfacet
 facet normal -0.738076 0 0.674717
  outer loop
   vertex 0.00308661 -0.0085 0.0207243
   vertex 0.00346507 -0.0085 0.0211383
   vertex 0.00308661 0.0255 0.0207243
  endloop
 endfacet
 facet normal -0.767709 0 0.640798
  outer loop
   vertex 0.00272711 -0.0085 0.0202936
   vertex 0.00308661 0.0255 0.0207243
   vertex 0.00272711 0.0255 0.0202936
  endloop
 endfacet
 facet normal -0.79562 0 0.605796
  outer loop
   vertex 0.00272711 -0.0085 0.0202936
   vertex 0.00272711 0.0255 0.0202936
   vertex 0.00238729 0.0255 0.0198473
  endloop
 endfacet
 facet normal -0.767709 0 0.640798
  outer loop
   vertex 0.00272711 -0.0085 0.0202936
   vertex 0.00308661 -0.0085 0.0207243
   vertex 0.00308661 0.0255 0.0207243
  endloop
 endfacet
 facet normal -0.79562 0 0.605796
  outer loop
   vertex 0.00238729 -0.0085 0.0198473
   vertex 0.00272711 -0.0085 0.0202936
   vertex 0.00238729 0.0255 0.0198473
  endloop
 endfacet
 facet normal -0.822003 0 0.569484
  outer loop
   vertex 0.00238729 -0.0085 0.0198473
   vertex 0.00238729 0.0255 0.0198473
   vertex 0.00206784 0.0255 0.0193862
  endloop
 endfacet
 facet normal -0.822003 0 0.569484
  outer loop
   vertex 0.00206784 -0.0085 0.0193862
   vertex 0.00238729 -0.0085 0.0198473
   vertex 0.00206784 0.0255 0.0193862
  endloop
 endfacet
 facet normal -0.846734 0 0.532016
  outer loop
   vertex 0.00206784 -0.0085 0.0193862
   vertex 0.00206784 0.0255 0.0193862
   vertex 0.00176939 0.0255 0.0189112
  endloop
 endfacet
 facet normal -0.846734 0 0.532016
  outer loop
   vertex 0.00176939 -0.0085 0.0189112
   vertex 0.00206784 -0.0085 0.0193862
   vertex 0.00176939 0.0255 0.0189112
  endloop
 endfacet
 facet normal -0.869708 0 0.493567
  outer loop
   vertex 0.00176939 -0.0085 0.0189112
   vertex 0.00176939 0.0255 0.0189112
   vertex 0.00149256 0.0255 0.0184234
  endloop
 endfacet
 facet normal -0.869708 0 0.493567
  outer loop
   vertex 0.00149256 -0.0085 0.0184234
   vertex 0.00176939 -0.0085 0.0189112
   vertex 0.00149256 0.0255 0.0184234
  endloop
 endfacet
 facet normal -0.910495 0 0.41352
  outer loop
   vertex 0.00123789 -0.0085 0.0179236
   vertex 0.00123789 0.0255 0.0179236
   vertex 0.0010059 0.0255 0.0174128
  endloop
 endfacet
 facet normal -0.891001 0 0.454002
  outer loop
   vertex 0.00123789 -0.0085 0.0179236
   vertex 0.00149256 -0.0085 0.0184234
   vertex 0.00149256 0.0255 0.0184234
  endloop
 endfacet
 facet normal -0.891001 0 0.454002
  outer loop
   vertex 0.00123789 -0.0085 0.0179236
   vertex 0.00149256 0.0255 0.0184234
   vertex 0.00123789 0.0255 0.0179236
  endloop
 endfacet
 facet normal -0.92811 0 0.372305
  outer loop
   vertex 0.0010059 -0.0085 0.0174128
   vertex 0.0010059 0.0255 0.0174128
   vertex 0.000797065 0.0255 0.0168922
  endloop
 endfacet
 facet normal -0.910495 0 0.41352
  outer loop
   vertex 0.0010059 -0.0085 0.0174128
   vertex 0.00123789 -0.0085 0.0179236
   vertex 0.0010059 0.0255 0.0174128
  endloop
 endfacet
 facet normal -0.943889 0 0.330263
  outer loop
   vertex 0.000797065 -0.0085 0.0168922
   vertex 0.000797065 0.0255 0.0168922
   vertex 0.000611795 0.0255 0.0163627
  endloop
 endfacet
 facet normal -0.92811 0 0.372305
  outer loop
   vertex 0.000797065 -0.0085 0.0168922
   vertex 0.0010059 -0.0085 0.0174128
   vertex 0.000797065 0.0255 0.0168922
  endloop
 endfacet
 facet normal -0.957743 0 0.287626
  outer loop
   vertex 0.000611795 -0.0085 0.0163627
   vertex 0.000611795 0.0255 0.0163627
   vertex 0.000450465 0.0255 0.0158255
  endloop
 endfacet
 facet normal -0.943889 0 0.330263
  outer loop
   vertex 0.000611795 -0.0085 0.0163627
   vertex 0.000797065 -0.0085 0.0168922
   vertex 0.000611795 0.0255 0.0163627
  endloop
 endfacet
 facet normal -0.957743 0 0.287626
  outer loop
   vertex 0.000450465 -0.0085 0.0158255
   vertex 0.000611795 -0.0085 0.0163627
   vertex 0.000450465 0.0255 0.0158255
  endloop
 endfacet
 facet normal -0.969694 0 0.244322
  outer loop
   vertex 0.0003134 -0.0085 0.0152815
   vertex 0.000450465 0.0255 0.0158255
   vertex 0.0003134 0.0255 0.0152815
  endloop
 endfacet
 facet normal -0.979672 0 0.200606
  outer loop
   vertex 0.0003134 -0.0085 0.0152815
   vertex 0.0003134 0.0255 0.0152815
   vertex 0.00020088 0.0255 0.014732
  endloop
 endfacet
 facet normal -0.969694 0 0.244322
  outer loop
   vertex 0.0003134 -0.0085 0.0152815
   vertex 0.000450465 -0.0085 0.0158255
   vertex 0.000450465 0.0255 0.0158255
  endloop
 endfacet
 facet normal -0.987691 0 0.156417
  outer loop
   vertex 0.00020088 -0.0085 0.014732
   vertex 0.00020088 0.0255 0.014732
   vertex 0.000113129 0.0255 0.0141779
  endloop
 endfacet
 facet normal -0.979672 0 0.200606
  outer loop
   vertex 0.00020088 -0.0085 0.014732
   vertex 0.0003134 -0.0085 0.0152815
   vertex 0.00020088 0.0255 0.014732
  endloop
 endfacet
 facet normal -0.993711 0 0.111974
  outer loop
   vertex 0.000113129 -0.0085 0.0141779
   vertex 0.000113129 0.0255 0.0141779
   vertex 5.03195e-05 0.0255 0.0136205
  endloop
 endfacet
 facet normal -0.987691 0 0.156417
  outer loop
   vertex 0.000113129 -0.0085 0.0141779
   vertex 0.00020088 -0.0085 0.014732
   vertex 0.000113129 0.0255 0.0141779
  endloop
 endfacet
 facet normal -0.997735 0 0.0672669
  outer loop
   vertex 5.03195e-05 -0.0085 0.0136205
   vertex 5.03195e-05 0.0255 0.0136205
   vertex 1.25847e-05 0.0255 0.0130608
  endloop
 endfacet
 facet normal -0.993711 0 0.111974
  outer loop
   vertex 5.03195e-05 -0.0085 0.0136205
   vertex 0.000113129 -0.0085 0.0141779
   vertex 5.03195e-05 0.0255 0.0136205
  endloop
 endfacet
 facet normal -0.997735 0 0.0672669
  outer loop
   vertex 1.25847e-05 -0.0085 0.0130608
   vertex 5.03195e-05 -0.0085 0.0136205
   vertex 1.25847e-05 0.0255 0.0130608
  endloop
 endfacet
 facet normal -0.999748 0 0.022435
  outer loop
   vertex 0 -0.0085 0.0125
   vertex 1.25847e-05 0.0255 0.0130608
   vertex 0 0.0255 0.0125
  endloop
 endfacet
 facet normal -0.999748 -0 -0.022435
  outer loop
   vertex 0 -0.0085 0.0125
   vertex 0 0.0255 0.0125
   vertex 1.25847e-05 0.0255 0.0119392
  endloop
 endfacet
 facet normal -0.999748 0 0.022435
  outer loop
   vertex 0 -0.0085 0.0125
   vertex 1.25847e-05 -0.0085 0.0130608
   vertex 1.25847e-05 0.0255 0.0130608
  endloop
 endfacet
 facet normal -0.997735 -0 -0.067267
  outer loop
   vertex 1.25847e-05 -0.0085 0.0119392
   vertex 1.25847e-05 0.0255 0.0119392
   vertex 5.03195e-05 0.0255 0.0113795
  endloop
 endfacet
 facet normal -0.999748 0 -0.022435
  outer loop
   vertex 1.25847e-05 -0.0085 0.0119392
   vertex 0 -0.0085 0.0125
   vertex 1.25847e-05 0.0255 0.0119392
  endloop
 endfacet
 facet normal -0.993711 -0 -0.111974
  outer loop
   vertex 5.03195e-05 -0.0085 0.0113795
   vertex 5.03195e-05 0.0255 0.0113795
   vertex 0.000113129 0.0255 0.0108221
  endloop
 endfacet
 facet normal -0.997735 0 -0.067267
  outer loop
   vertex 5.03195e-05 -0.0085 0.0113795
   vertex 1.25847e-05 -0.0085 0.0119392
   vertex 5.03195e-05 0.0255 0.0113795
  endloop
 endfacet
 facet normal -0.993711 0 -0.111974
  outer loop
   vertex 0.000113129 -0.0085 0.0108221
   vertex 5.03195e-05 -0.0085 0.0113795
   vertex 0.000113129 0.0255 0.0108221
  endloop
 endfacet
 facet normal -0.987687 0 -0.156445
  outer loop
   vertex 0.00020088 -0.0085 0.0102681
   vertex 0.000113129 0.0255 0.0108221
   vertex 0.00020088 0.0255 0.0102681
  endloop
 endfacet
 facet normal -0.979679 -0 -0.200571
  outer loop
   vertex 0.00020088 -0.0085 0.0102681
   vertex 0.00020088 0.0255 0.0102681
   vertex 0.0003134 0.0255 0.0097185
  endloop
 endfacet
 facet normal -0.987687 0 -0.156445
  outer loop
   vertex 0.00020088 -0.0085 0.0102681
   vertex 0.000113129 -0.0085 0.0108221
   vertex 0.000113129 0.0255 0.0108221
  endloop
 endfacet
 facet normal -0.969689 -0 -0.244343
  outer loop
   vertex 0.0003134 -0.0085 0.0097185
   vertex 0.0003134 0.0255 0.0097185
   vertex 0.000450465 0.0255 0.00917455
  endloop
 endfacet
 facet normal -0.979679 0 -0.200571
  outer loop
   vertex 0.0003134 -0.0085 0.0097185
   vertex 0.00020088 -0.0085 0.0102681
   vertex 0.0003134 0.0255 0.0097185
  endloop
 endfacet
 facet normal -0.95775 -0 -0.287601
  outer loop
   vertex 0.000450465 -0.0085 0.00917455
   vertex 0.000450465 0.0255 0.00917455
   vertex 0.000611795 0.0255 0.0086373
  endloop
 endfacet
 facet normal -0.969689 0 -0.244343
  outer loop
   vertex 0.000450465 -0.0085 0.00917455
   vertex 0.0003134 -0.0085 0.0097185
   vertex 0.000450465 0.0255 0.00917455
  endloop
 endfacet
 facet normal -0.943889 -0 -0.330263
  outer loop
   vertex 0.000611795 -0.0085 0.0086373
   vertex 0.000611795 0.0255 0.0086373
   vertex 0.000797065 0.0255 0.0081078
  endloop
 endfacet
 facet normal -0.95775 0 -0.287601
  outer loop
   vertex 0.000611795 -0.0085 0.0086373
   vertex 0.000450465 -0.0085 0.00917455
   vertex 0.000611795 0.0255 0.0086373
  endloop
 endfacet
 facet normal -0.943889 0 -0.330263
  outer loop
   vertex 0.000797065 -0.0085 0.0081078
   vertex 0.000611795 -0.0085 0.0086373
   vertex 0.000797065 0.0255 0.0081078
  endloop
 endfacet
 facet normal -0.92811 0 -0.372305
  outer loop
   vertex 0.0010059 -0.0085 0.0075872
   vertex 0.000797065 0.0255 0.0081078
   vertex 0.0010059 0.0255 0.0075872
  endloop
 endfacet
 facet normal -0.91048 -0 -0.413553
  outer loop
   vertex 0.0010059 -0.0085 0.0075872
   vertex 0.0010059 0.0255 0.0075872
   vertex 0.00123789 0.0255 0.00707645
  endloop
 endfacet
 facet normal -0.92811 0 -0.372305
  outer loop
   vertex 0.0010059 -0.0085 0.0075872
   vertex 0.000797065 -0.0085 0.0081078
   vertex 0.000797065 0.0255 0.0081078
  endloop
 endfacet
 facet normal -0.91048 0 -0.413553
  outer loop
   vertex 0.00123789 -0.0085 0.00707645
   vertex 0.0010059 -0.0085 0.0075872
   vertex 0.00123789 0.0255 0.00707645
  endloop
 endfacet
 facet normal -0.891 -0 -0.454003
  outer loop
   vertex 0.00123789 -0.0085 0.00707645
   vertex 0.00123789 0.0255 0.00707645
   vertex 0.00149256 0.0255 0.00657665
  endloop
 endfacet
 facet normal -0.891 0 -0.454003
  outer loop
   vertex 0.00149256 -0.0085 0.00657665
   vertex 0.00123789 -0.0085 0.00707645
   vertex 0.00149256 0.0255 0.00657665
  endloop
 endfacet
 facet normal -0.869752 -0 -0.493489
  outer loop
   vertex 0.00149256 -0.0085 0.00657665
   vertex 0.00149256 0.0255 0.00657665
   vertex 0.00176939 0.0255 0.00608875
  endloop
 endfacet
 facet normal -0.869752 0 -0.493489
  outer loop
   vertex 0.00176939 -0.0085 0.00608875
   vertex 0.00149256 -0.0085 0.00657665
   vertex 0.00176939 0.0255 0.00608875
  endloop
 endfacet
 facet normal -0.846709 -0 -0.532057
  outer loop
   vertex 0.00176939 -0.0085 0.00608875
   vertex 0.00176939 0.0255 0.00608875
   vertex 0.00206784 0.0255 0.0056138
  endloop
 endfacet
 facet normal -0.846709 0 -0.532057
  outer loop
   vertex 0.00206784 -0.0085 0.0056138
   vertex 0.00176939 -0.0085 0.00608875
   vertex 0.00206784 0.0255 0.0056138
  endloop
 endfacet
 facet normal -0.822003 0 -0.569483
  outer loop
   vertex 0.00238729 -0.0085 0.0051527
   vertex 0.00206784 -0.0085 0.0056138
   vertex 0.00206784 0.0255 0.0056138
  endloop
 endfacet
 facet normal -0.822003 0 -0.569483
  outer loop
   vertex 0.00238729 -0.0085 0.0051527
   vertex 0.00206784 0.0255 0.0056138
   vertex 0.00238729 0.0255 0.0051527
  endloop
 endfacet
 facet normal -0.795639 -0 -0.605772
  outer loop
   vertex 0.00238729 -0.0085 0.0051527
   vertex 0.00238729 0.0255 0.0051527
   vertex 0.00272711 0.0255 0.00470637
  endloop
 endfacet
 facet normal -0.795639 0 -0.605772
  outer loop
   vertex 0.00272711 -0.0085 0.00470637
   vertex 0.00238729 -0.0085 0.0051527
   vertex 0.00272711 0.0255 0.00470637
  endloop
 endfacet
 facet normal -0.767644 -0 -0.640877
  outer loop
   vertex 0.00272711 -0.0085 0.00470637
   vertex 0.00272711 0.0255 0.00470637
   vertex 0.00308661 0.0255 0.00427576
  endloop
 endfacet
 facet normal -0.73811 -0 -0.674681
  outer loop
   vertex 0.00308661 -0.0085 0.00427576
   vertex 0.00308661 0.0255 0.00427576
   vertex 0.00346507 0.0255 0.00386172
  endloop
 endfacet
 facet normal -0.767644 0 -0.640877
  outer loop
   vertex 0.00308661 -0.0085 0.00427576
   vertex 0.00272711 -0.0085 0.00470637
   vertex 0.00308661 0.0255 0.00427576
  endloop
 endfacet
 facet normal -0.707107 -0 -0.707107
  outer loop
   vertex 0.00346507 -0.0085 0.00386172
   vertex 0.00346507 0.0255 0.00386172
   vertex 0.00386172 0.0255 0.00346507
  endloop
 endfacet
 facet normal -0.73811 0 -0.674681
  outer loop
   vertex 0.00346507 -0.0085 0.00386172
   vertex 0.00308661 -0.0085 0.00427576
   vertex 0.00346507 0.0255 0.00386172
  endloop
 endfacet
 facet normal -0.674681 -0 -0.73811
  outer loop
   vertex 0.00386172 -0.0085 0.00346507
   vertex 0.00386172 0.0255 0.00346507
   vertex 0.00427576 0.0255 0.00308661
  endloop
 endfacet
 facet normal -0.707107 0 -0.707107
  outer loop
   vertex 0.00386172 -0.0085 0.00346507
   vertex 0.00346507 -0.0085 0.00386172
   vertex 0.00386172 0.0255 0.00346507
  endloop
 endfacet
 facet normal -0.640877 -0 -0.767644
  outer loop
   vertex 0.00427576 -0.0085 0.00308661
   vertex 0.00427576 0.0255 0.00308661
   vertex 0.00470637 0.0255 0.00272711
  endloop
 endfacet
 facet normal -0.674681 0 -0.73811
  outer loop
   vertex 0.00427576 -0.0085 0.00308661
   vertex 0.00386172 -0.0085 0.00346507
   vertex 0.00427576 0.0255 0.00308661
  endloop
 endfacet
 facet normal -0.605772 -0 -0.795639
  outer loop
   vertex 0.00470637 -0.0085 0.00272711
   vertex 0.00470637 0.0255 0.00272711
   vertex 0.0051527 0.0255 0.00238729
  endloop
 endfacet
 facet normal -0.640877 0 -0.767644
  outer loop
   vertex 0.00470637 -0.0085 0.00272711
   vertex 0.00427576 -0.0085 0.00308661
   vertex 0.00470637 0.0255 0.00272711
  endloop
 endfacet
 facet normal -0.605772 0 -0.795639
  outer loop
   vertex 0.0051527 -0.0085 0.00238729
   vertex 0.00470637 -0.0085 0.00272711
   vertex 0.0051527 0.0255 0.00238729
  endloop
 endfacet
 facet normal -0.569483 0 -0.822003
  outer loop
   vertex 0.0056138 -0.0085 0.00206784
   vertex 0.0051527 0.0255 0.00238729
   vertex 0.0056138 0.0255 0.00206784
  endloop
 endfacet
 facet normal -0.532057 -0 -0.846709
  outer loop
   vertex 0.0056138 -0.0085 0.00206784
   vertex 0.0056138 0.0255 0.00206784
   vertex 0.00608875 0.0255 0.00176939
  endloop
 endfacet
 facet normal -0.569483 0 -0.822003
  outer loop
   vertex 0.0056138 -0.0085 0.00206784
   vertex 0.0051527 -0.0085 0.00238729
   vertex 0.0051527 0.0255 0.00238729
  endloop
 endfacet
 facet normal -0.532057 0 -0.846709
  outer loop
   vertex 0.00608875 -0.0085 0.00176939
   vertex 0.0056138 -0.0085 0.00206784
   vertex 0.00608875 0.0255 0.00176939
  endloop
 endfacet
 facet normal -0.493489 -0 -0.869752
  outer loop
   vertex 0.00608875 -0.0085 0.00176939
   vertex 0.00608875 0.0255 0.00176939
   vertex 0.00657665 0.0255 0.00149256
  endloop
 endfacet
 facet normal -0.454003 -0 -0.891
  outer loop
   vertex 0.00657665 -0.0085 0.00149256
   vertex 0.00657665 0.0255 0.00149256
   vertex 0.00707645 0.0255 0.00123789
  endloop
 endfacet
 facet normal -0.493489 0 -0.869752
  outer loop
   vertex 0.00657665 -0.0085 0.00149256
   vertex 0.00608875 -0.0085 0.00176939
   vertex 0.00657665 0.0255 0.00149256
  endloop
 endfacet
 facet normal -0.413553 -0 -0.91048
  outer loop
   vertex 0.00707645 -0.0085 0.00123789
   vertex 0.00707645 0.0255 0.00123789
   vertex 0.0075872 0.0255 0.0010059
  endloop
 endfacet
 facet normal -0.454003 0 -0.891
  outer loop
   vertex 0.00707645 -0.0085 0.00123789
   vertex 0.00657665 -0.0085 0.00149256
   vertex 0.00707645 0.0255 0.00123789
  endloop
 endfacet
 facet normal -0.372305 -0 -0.92811
  outer loop
   vertex 0.0075872 -0.0085 0.0010059
   vertex 0.0075872 0.0255 0.0010059
   vertex 0.0081078 0.0255 0.000797065
  endloop
 endfacet
 facet normal -0.413553 0 -0.91048
  outer loop
   vertex 0.0075872 -0.0085 0.0010059
   vertex 0.00707645 -0.0085 0.00123789
   vertex 0.0075872 0.0255 0.0010059
  endloop
 endfacet
 facet normal 0 -1 0
  outer loop
   vertex 0.00427576 -0.0085 0.00308661
   vertex 0.00346507 -0.0085 0.00386172
   vertex 0.00386172 -0.0085 0.00346507
  endloop
 endfacet
 facet normal 0 -1 0
  outer loop
   vertex 0.00272711 -0.0085 0.00470637
   vertex 0.00308661 -0.0085 0.00427576
   vertex 0.00346507 -0.0085 0.00386172
  endloop
 endfacet
 facet normal 0 -1 0
  outer loop
   vertex 0.0051527 -0.0085 0.00238729
   vertex 0.00346507 -0.0085 0.00386172
   vertex 0.00427576 -0.0085 0.00308661
  endloop
 endfacet
 facet normal 0 -1 0
  outer loop
   vertex 0.0051527 -0.0085 0.00238729
   vertex 0.00427576 -0.0085 0.00308661
   vertex 0.00470637 -0.0085 0.00272711
  endloop
 endfacet
 facet normal 0 -1 0
  outer loop
   vertex 0.00206784 -0.0085 0.0056138
   vertex 0.00238729 -0.0085 0.0051527
   vertex 0.00272711 -0.0085 0.00470637
  endloop
 endfacet
 facet normal 0 -1 0
  outer loop
   vertex 0.00608875 -0.0085 0.00176939
   vertex 0.00272711 -0.0085 0.00470637
   vertex 0.00346507 -0.0085 0.00386172
  endloop
 endfacet
 facet normal 0 -1 0
  outer loop
   vertex 0.00608875 -0.0085 0.00176939
   vertex 0.00346507 -0.0085 0.00386172
   vertex 0.0051527 -0.0085 0.00238729
  endloop
 endfacet
 facet normal 0 -1 0
  outer loop
   vertex 0.00608875 -0.0085 0.00176939
   vertex 0.0051527 -0.0085 0.00238729
   vertex 0.0056138 -0.0085 0.00206784
  endloop
 endfacet
 facet normal 0 -1 0
  outer loop
   vertex 0.00149256 -0.0085 0.00657665
   vertex 0.00176939 -0.0085 0.00608875
   vertex 0.00206784 -0.0085 0.0056138
  endloop
 endfacet
 facet normal 0 -1 0
  outer loop
   vertex 0.00123789 -0.0085 0.00707645
   vertex 0.00149256 -0.0085 0.00657665
   vertex 0.00206784 -0.0085 0.0056138
  endloop
 endfacet
 facet normal 0 -1 0
  outer loop
   vertex 0.0075872 -0.0085 0.0010059
   vertex 0.00608875 -0.0085 0.00176939
   vertex 0.00657665 -0.0085 0.00149256
  endloop
 endfacet
 facet normal 0 -1 0
  outer loop
   vertex 0.0075872 -0.0085 0.0010059
   vertex 0.00657665 -0.0085 0.00149256
   vertex 0.00707645 -0.0085 0.00123789
  endloop
 endfacet
 facet normal 0 -1 0
  outer loop
   vertex 0.0010059 -0.0085 0.0075872
   vertex 0.00206784 -0.0085 0.0056138
   vertex 0.00272711 -0.0085 0.00470637
  endloop
 endfacet
 facet normal 0 -1 0
  outer loop
   vertex 0.0010059 -0.0085 0.0075872
   vertex 0.00272711 -0.0085 0.00470637
   vertex 0.00608875 -0.0085 0.00176939
  endloop
 endfacet
 facet normal 0 -1 0
  outer loop
   vertex 0.0010059 -0.0085 0.0075872
   vertex 0.00123789 -0.0085 0.00707645
   vertex 0.00206784 -0.0085 0.0056138
  endloop
 endfacet
 facet normal 0 -1 0
  outer loop
   vertex 0.000797065 -0.0085 0.0081078
   vertex 0.00608875 -0.0085 0.00176939
   vertex 0.0075872 -0.0085 0.0010059
  endloop
 endfacet
 facet normal 0 -1 0
  outer loop
   vertex 0.000797065 -0.0085 0.0081078
   vertex 0.0010059 -0.0085 0.0075872
   vertex 0.00608875 -0.0085 0.00176939
  endloop
 endfacet
 facet normal 0 -1 0
  outer loop
   vertex 0.0086373 -0.0085 0.000611795
   vertex 0.000797065 -0.0085 0.0081078
   vertex 0.0075872 -0.0085 0.0010059
  endloop
 endfacet
 facet normal 0 -1 0
  outer loop
   vertex 0.0086373 -0.0085 0.000611795
   vertex 0.0075872 -0.0085 0.0010059
   vertex 0.0081078 -0.0085 0.000797065
  endloop
 endfacet
 facet normal 0 -1 0
  outer loop
   vertex 0.000611795 -0.0085 0.0086373
   vertex 0.000797065 -0.0085 0.0081078
   vertex 0.0086373 -0.0085 0.000611795
  endloop
 endfacet
 facet normal 0 -1 0
  outer loop
   vertex 0.0097185 -0.0085 0.0003134
   vertex 0.0086373 -0.0085 0.000611795
   vertex 0.00917455 -0.0085 0.000450465
  endloop
 endfacet
 facet normal 0 -1 0
  outer loop
   vertex 0.0003134 -0.0085 0.0097185
   vertex 0.000450465 -0.0085 0.00917455
   vertex 0.000611795 -0.0085 0.0086373
  endloop
 endfacet
 facet normal 0 -1 0
  outer loop
   vertex 0.0003134 -0.0085 0.0097185
   vertex 0.000611795 -0.0085 0.0086373
   vertex 0.0086373 -0.0085 0.000611795
  endloop
 endfacet
 facet normal 0 -1 0
  outer loop
   vertex 0.0108221 -0.0085 0.000113129
   vertex 0.0097185 -0.0085 0.0003134
   vertex 0.0102681 -0.0085 0.00020088
  endloop
 endfacet
 facet normal 0 -1 0
  outer loop
   vertex 0.0108221 -0.0085 0.000113129
   vertex 0.0086373 -0.0085 0.000611795
   vertex 0.0097185 -0.0085 0.0003134
  endloop
 endfacet
 facet normal 0 -1 0
  outer loop
   vertex 0.0108221 -0.0085 0.000113129
   vertex 0.0003134 -0.0085 0.0097185
   vertex 0.0086373 -0.0085 0.000611795
  endloop
 endfacet
 facet normal 0 -1 0
  outer loop
   vertex 0.000113129 -0.0085 0.0108221
   vertex 0.00020088 -0.0085 0.0102681
   vertex 0.0003134 -0.0085 0.0097185
  endloop
 endfacet
 facet normal 0 -1 0
  outer loop
   vertex 5.03195e-05 -0.0085 0.0113795
   vertex 0.000113129 -0.0085 0.0108221
   vertex 0.0003134 -0.0085 0.0097185
  endloop
 endfacet
 facet normal 0 -1 0
  outer loop
   vertex 0.0119392 -0.0085 1.25847e-05
   vertex 0.0108221 -0.0085 0.000113129
   vertex 0.0113795 -0.0085 5.03195e-05
  endloop
 endfacet
 facet normal 0 -1 0
  outer loop
   vertex 0.0130608 -0.0085 1.25847e-05
   vertex 0.0119392 -0.0085 1.25847e-05
   vertex 0.0125 -0.0085 1.73472e-18
  endloop
 endfacet
 facet normal 0 -1 0
  outer loop
   vertex 0.0130608 -0.0085 1.25847e-05
   vertex 0.0108221 -0.0085 0.000113129
   vertex 0.0119392 -0.0085 1.25847e-05
  endloop
 endfacet
 facet normal 0 -1 0
  outer loop
   vertex 0.000113129 -0.0085 0.0141779
   vertex 5.03195e-05 -0.0085 0.0113795
   vertex 0.0003134 -0.0085 0.0097185
  endloop
 endfacet
 facet normal 0 -1 -0
  outer loop
   vertex 0.000113129 -0.0085 0.0141779
   vertex 5.03195e-05 -0.0085 0.0136205
   vertex 1.25847e-05 -0.0085 0.0130608
  endloop
 endfacet
 facet normal 0 -1 -0
  outer loop
   vertex 0.000113129 -0.0085 0.0141779
   vertex 1.25847e-05 -0.0085 0.0130608
   vertex 0 -0.0085 0.0125
  endloop
 endfacet
 facet normal 0 -1 0
  outer loop
   vertex 0.000113129 -0.0085 0.0141779
   vertex 0 -0.0085 0.0125
   vertex 1.25847e-05 -0.0085 0.0119392
  endloop
 endfacet
 facet normal 0 -1 0
  outer loop
   vertex 0.000113129 -0.0085 0.0141779
   vertex 1.25847e-05 -0.0085 0.0119392
   vertex 5.03195e-05 -0.0085 0.0113795
  endloop
 endfacet
 facet normal 0 -1 0
  outer loop
   vertex 0.000113129 -0.0085 0.0141779
   vertex 0.0003134 -0.0085 0.0097185
   vertex 0.0108221 -0.0085 0.000113129
  endloop
 endfacet
 facet normal 0 -1 0
  outer loop
   vertex 0.014732 -0.0085 0.00020088
   vertex 0.0136205 -0.0085 5.03195e-05
   vertex 0.0141779 -0.0085 0.000113129
  endloop
 endfacet
 facet normal 0 -1 0
  outer loop
   vertex 0.0152815 -0.0085 0.0003134
   vertex 0.0130608 -0.0085 1.25847e-05
   vertex 0.0136205 -0.0085 5.03195e-05
  endloop
 endfacet
 facet normal 0 -1 0
  outer loop
   vertex 0.0152815 -0.0085 0.0003134
   vertex 0.0108221 -0.0085 0.000113129
   vertex 0.0130608 -0.0085 1.25847e-05
  endloop
 endfacet
 facet normal 0 -1 0
  outer loop
   vertex 0.0152815 -0.0085 0.0003134
   vertex 0.0136205 -0.0085 5.03195e-05
   vertex 0.014732 -0.0085 0.00020088
  endloop
 endfacet
 facet normal 0 -1 0
  outer loop
   vertex 0.0152815 -0.0085 0.0003134
   vertex 0.000113129 -0.0085 0.0141779
   vertex 0.0108221 -0.0085 0.000113129
  endloop
 endfacet
 facet normal 0 -1 -0
  outer loop
   vertex 0.0003134 -0.0085 0.0152815
   vertex 0.00020088 -0.0085 0.014732
   vertex 0.000113129 -0.0085 0.0141779
  endloop
 endfacet
 facet normal 0 -1 0
  outer loop
   vertex 0.0158255 -0.0085 0.000450465
   vertex 0.000113129 -0.0085 0.0141779
   vertex 0.0152815 -0.0085 0.0003134
  endloop
 endfacet
 facet normal 0 -1 -0
  outer loop
   vertex 0.000611795 -0.0085 0.0163627
   vertex 0.0003134 -0.0085 0.0152815
   vertex 0.000113129 -0.0085 0.0141779
  endloop
 endfacet
 facet normal 0 -1 -0
  outer loop
   vertex 0.000611795 -0.0085 0.0163627
   vertex 0.000450465 -0.0085 0.0158255
   vertex 0.0003134 -0.0085 0.0152815
  endloop
 endfacet
 facet normal 0 -1 0
  outer loop
   vertex 0.0168922 -0.0085 0.000797065
   vertex 0.0158255 -0.0085 0.000450465
   vertex 0.0163627 -0.0085 0.000611795
  endloop
 endfacet
 facet normal 0 -1 0
  outer loop
   vertex 0.0168922 -0.0085 0.000797065
   vertex 0.000113129 -0.0085 0.0141779
   vertex 0.0158255 -0.0085 0.000450465
  endloop
 endfacet
 facet normal 0 -1 -0
  outer loop
   vertex 0.0168922 -0.0085 0.000797065
   vertex 0.000611795 -0.0085 0.0163627
   vertex 0.000113129 -0.0085 0.0141779
  endloop
 endfacet
 facet normal 0 -1 0
  outer loop
   vertex 0.000797065 -0.0085 0.0168922
   vertex 0.000611795 -0.0085 0.0163627
   vertex 0.0168922 -0.0085 0.000797065
  endloop
 endfacet
 facet normal 0 -1 0
  outer loop
   vertex 0.0174128 -0.0085 0.0010059
   vertex 0.000797065 -0.0085 0.0168922
   vertex 0.0168922 -0.0085 0.000797065
  endloop
 endfacet
 facet normal 0 -1 0
  outer loop
   vertex 0.0184234 -0.0085 0.00149256
   vertex 0.0174128 -0.0085 0.0010059
   vertex 0.0179236 -0.0085 0.00123789
  endloop
 endfacet
 facet normal 0 -1 0
  outer loop
   vertex 0.0184234 -0.0085 0.00149256
   vertex 0.000797065 -0.0085 0.0168922
   vertex 0.0174128 -0.0085 0.0010059
  endloop
 endfacet
 facet normal 0 -1 -0
  outer loop
   vertex 0.0184234 -0.0085 0.00149256
   vertex 0.0010059 -0.0085 0.0174128
   vertex 0.000797065 -0.0085 0.0168922
  endloop
 endfacet
 facet normal 0 -1 -0
  outer loop
   vertex 0.00176939 -0.0085 0.0189112
   vertex 0.00149256 -0.0085 0.0184234
   vertex 0.00123789 -0.0085 0.0179236
  endloop
 endfacet
 facet normal 0 -1 0
  outer loop
   vertex 0.0193862 -0.0085 0.00206784
   vertex 0.0184234 -0.0085 0.00149256
   vertex 0.0189112 -0.0085 0.00176939
  endloop
 endfacet
 facet normal 0 -1 0
  outer loop
   vertex 0.00238729 -0.0085 0.0198473
   vertex 0.0010059 -0.0085 0.0174128
   vertex 0.0184234 -0.0085 0.00149256
  endloop
 endfacet
 facet normal 0 -1 -0
  outer loop
   vertex 0.00238729 -0.0085 0.0198473
   vertex 0.00206784 -0.0085 0.0193862
   vertex 0.00176939 -0.0085 0.0189112
  endloop
 endfacet
 facet normal 0 -1 -0
  outer loop
   vertex 0.00238729 -0.0085 0.0198473
   vertex 0.00123789 -0.0085 0.0179236
   vertex 0.0010059 -0.0085 0.0174128
  endloop
 endfacet
 facet normal 0 -1 -0
  outer loop
   vertex 0.00238729 -0.0085 0.0198473
   vertex 0.00176939 -0.0085 0.0189112
   vertex 0.00123789 -0.0085 0.0179236
  endloop
 endfacet
 facet normal 0 -1 0
  outer loop
   vertex 0.0202936 -0.0085 0.00272711
   vertex 0.0193862 -0.0085 0.00206784
   vertex 0.0198473 -0.0085 0.00238729
  endloop
 endfacet
 facet normal 0 -1 0
  outer loop
   vertex 0.0202936 -0.0085 0.00272711
   vertex 0.0184234 -0.0085 0.00149256
   vertex 0.0193862 -0.0085 0.00206784
  endloop
 endfacet
 facet normal 0 -1 0
  outer loop
   vertex 0.0202936 -0.0085 0.00272711
   vertex 0.00238729 -0.0085 0.0198473
   vertex 0.0184234 -0.0085 0.00149256
  endloop
 endfacet
 facet normal 0 -1 0
  outer loop
   vertex 0.00272711 -0.0085 0.0202936
   vertex 0.00238729 -0.0085 0.0198473
   vertex 0.0202936 -0.0085 0.00272711
  endloop
 endfacet
 facet normal 0 -1 0
  outer loop
   vertex 0.0207243 -0.0085 0.00308661
   vertex 0.00272711 -0.0085 0.0202936
   vertex 0.0202936 -0.0085 0.00272711
  endloop
 endfacet
 facet normal 0 -1 -0
  outer loop
   vertex 0.00386172 -0.0085 0.0215349
   vertex 0.00346507 -0.0085 0.0211383
   vertex 0.00308661 -0.0085 0.0207243
  endloop
 endfacet
 facet normal 0 -1 -0
  outer loop
   vertex 0.00386172 -0.0085 0.0215349
   vertex 0.00308661 -0.0085 0.0207243
   vertex 0.00272711 -0.0085 0.0202936
  endloop
 endfacet
 facet normal 0 -1 0
  outer loop
   vertex 0.0219134 -0.0085 0.00427576
   vertex 0.0211383 -0.0085 0.00346507
   vertex 0.0215349 -0.0085 0.00386172
  endloop
 endfacet
 facet normal 0 -1 0
  outer loop
   vertex 0.00427576 -0.0085 0.0219134
   vertex 0.00272711 -0.0085 0.0202936
   vertex 0.0207243 -0.0085 0.00308661
  endloop
 endfacet
 facet normal 0 -1 -0
  outer loop
   vertex 0.00427576 -0.0085 0.0219134
   vertex 0.00386172 -0.0085 0.0215349
   vertex 0.00272711 -0.0085 0.0202936
  endloop
 endfacet
 facet normal 0 -1 0
  outer loop
   vertex 0.0222729 -0.0085 0.00470637
   vertex 0.0211383 -0.0085 0.00346507
   vertex 0.0219134 -0.0085 0.00427576
  endloop
 endfacet
 facet normal 0 -1 -0
  outer loop
   vertex 0.0051527 -0.0085 0.0226127
   vertex 0.00470637 -0.0085 0.0222729
   vertex 0.00427576 -0.0085 0.0219134
  endloop
 endfacet
 facet normal 0 -1 0
  outer loop
   vertex 0.0229321 -0.0085 0.0056138
   vertex 0.0222729 -0.0085 0.00470637
   vertex 0.0226127 -0.0085 0.0051527
  endloop
 endfacet
 facet normal 0 -1 -0
  outer loop
   vertex 0.0056138 -0.0085 0.0229321
   vertex 0.0051527 -0.0085 0.0226127
   vertex 0.00427576 -0.0085 0.0219134
  endloop
 endfacet
 facet normal 0 -1 0
  outer loop
   vertex 0.0235074 -0.0085 0.00657665
   vertex 0.0229321 -0.0085 0.0056138
   vertex 0.0232306 -0.0085 0.00608875
  endloop
 endfacet
 facet normal 0 -1 0
  outer loop
   vertex 0.00657665 -0.0085 0.0235074
   vertex 0.0229321 -0.0085 0.0056138
   vertex 0.0235074 -0.0085 0.00657665
  endloop
 endfacet
 facet normal 0 -1 0
  outer loop
   vertex 0.00657665 -0.0085 0.0235074
   vertex 0.0207243 -0.0085 0.00308661
   vertex 0.0211383 -0.0085 0.00346507
  endloop
 endfacet
 facet normal 0 -1 -0
  outer loop
   vertex 0.00657665 -0.0085 0.0235074
   vertex 0.00608875 -0.0085 0.0232306
   vertex 0.0056138 -0.0085 0.0229321
  endloop
 endfacet
 facet normal 0 -1 0
  outer loop
   vertex 0.00657665 -0.0085 0.0235074
   vertex 0.00427576 -0.0085 0.0219134
   vertex 0.0207243 -0.0085 0.00308661
  endloop
 endfacet
 facet normal 0 -1 0
  outer loop
   vertex 0.00657665 -0.0085 0.0235074
   vertex 0.0211383 -0.0085 0.00346507
   vertex 0.0222729 -0.0085 0.00470637
  endloop
 endfacet
 facet normal 0 -1 0
  outer loop
   vertex 0.00657665 -0.0085 0.0235074
   vertex 0.0222729 -0.0085 0.00470637
   vertex 0.0229321 -0.0085 0.0056138
  endloop
 endfacet
 facet normal 0 -1 -0
  outer loop
   vertex 0.00657665 -0.0085 0.0235074
   vertex 0.0056138 -0.0085 0.0229321
   vertex 0.00427576 -0.0085 0.0219134
  endloop
 endfacet
 facet normal 0 -1 -0
  outer loop
   vertex 0.0075872 -0.0085 0.0239941
   vertex 0.00707645 -0.0085 0.0237621
   vertex 0.00657665 -0.0085 0.0235074
  endloop
 endfacet
 facet normal 0 -1 0
  outer loop
   vertex 0.024203 -0.0085 0.0081078
   vertex 0.00657665 -0.0085 0.0235074
   vertex 0.0235074 -0.0085 0.00657665
  endloop
 endfacet
 facet normal 0 -1 0
  outer loop
   vertex 0.024203 -0.0085 0.0081078
   vertex 0.0235074 -0.0085 0.00657665
   vertex 0.0237621 -0.0085 0.00707645
  endloop
 endfacet
 facet normal 0 -1 0
  outer loop
   vertex 0.024203 -0.0085 0.0081078
   vertex 0.0237621 -0.0085 0.00707645
   vertex 0.0239941 -0.0085 0.0075872
  endloop
 endfacet
 facet normal 0 -1 0
  outer loop
   vertex 0.0246866 -0.0085 0.0097185
   vertex 0.024203 -0.0085 0.0081078
   vertex 0.0243882 -0.0085 0.0086373
  endloop
 endfacet
 facet normal 0 -1 0
  outer loop
   vertex 0.0246866 -0.0085 0.0097185
   vertex 0.0243882 -0.0085 0.0086373
   vertex 0.0245495 -0.0085 0.00917455
  endloop
 endfacet
 facet normal 0 -1 0
  outer loop
   vertex 0.0248869 -0.0085 0.0108221
   vertex 0.0246866 -0.0085 0.0097185
   vertex 0.0247991 -0.0085 0.0102681
  endloop
 endfacet
 facet normal 0 -1 -0
  outer loop
   vertex 0.0108221 -0.0085 0.0248869
   vertex 0.0102681 -0.0085 0.0247991
   vertex 0.0097185 -0.0085 0.0246866
  endloop
 endfacet
 facet normal 0 -1 -0
  outer loop
   vertex 0.0108221 -0.0085 0.0248869
   vertex 0.0097185 -0.0085 0.0246866
   vertex 0.00917455 -0.0085 0.0245495
  endloop
 endfacet
 facet normal 0 -1 -0
  outer loop
   vertex 0.0108221 -0.0085 0.0248869
   vertex 0.00917455 -0.0085 0.0245495
   vertex 0.0086373 -0.0085 0.0243882
  endloop
 endfacet
 facet normal 0 -1 -0
  outer loop
   vertex 0.0108221 -0.0085 0.0248869
   vertex 0.0086373 -0.0085 0.0243882
   vertex 0.0081078 -0.0085 0.024203
  endloop
 endfacet
 facet normal 0 -1 -0
  outer loop
   vertex 0.0108221 -0.0085 0.0248869
   vertex 0.0081078 -0.0085 0.024203
   vertex 0.0075872 -0.0085 0.0239941
  endloop
 endfacet
 facet normal 0 -1 0
  outer loop
   vertex 0.0113795 -0.0085 0.0249497
   vertex 0.00657665 -0.0085 0.0235074
   vertex 0.024203 -0.0085 0.0081078
  endloop
 endfacet
 facet normal 0 -1 -0
  outer loop
   vertex 0.0113795 -0.0085 0.0249497
   vertex 0.0075872 -0.0085 0.0239941
   vertex 0.00657665 -0.0085 0.0235074
  endloop
 endfacet
 facet normal 0 -1 0
  outer loop
   vertex 0.0113795 -0.0085 0.0249497
   vertex 0.024203 -0.0085 0.0081078
   vertex 0.0246866 -0.0085 0.0097185
  endloop
 endfacet
 facet normal 0 -1 0
  outer loop
   vertex 0.0113795 -0.0085 0.0249497
   vertex 0.0246866 -0.0085 0.0097185
   vertex 0.0248869 -0.0085 0.0108221
  endloop
 endfacet
 facet normal 0 -1 -0
  outer loop
   vertex 0.0113795 -0.0085 0.0249497
   vertex 0.0108221 -0.0085 0.0248869
   vertex 0.0075872 -0.0085 0.0239941
  endloop
 endfacet
 facet normal 0 -1 0
  outer loop
   vertex 0.0113795 -0.0085 0.0249497
   vertex 0.0248869 -0.0085 0.0108221
   vertex 0.0249497 -0.0085 0.0113795
  endloop
 endfacet
 facet normal 0 -1 -0
  outer loop
   vertex 0.0125 -0.0085 0.025
   vertex 0.0119392 -0.0085 0.0249874
   vertex 0.0113795 -0.0085 0.0249497
  endloop
 endfacet
 facet normal 0 -1 0
  outer loop
   vertex 0.0249497 -0.0085 0.0136205
   vertex 0.025 -0.0085 0.0125
   vertex 0.0249874 -0.0085 0.0130608
  endloop
 endfacet
 facet normal 0 -1 0
  outer loop
   vertex 0.0249497 -0.0085 0.0136205
   vertex 0.0249497 -0.0085 0.0113795
   vertex 0.0249874 -0.0085 0.0119392
  endloop
 endfacet
 facet normal 0 -1 0
  outer loop
   vertex 0.0249497 -0.0085 0.0136205
   vertex 0.0249874 -0.0085 0.0119392
   vertex 0.025 -0.0085 0.0125
  endloop
 endfacet
 facet normal -0 -1 -0
  outer loop
   vertex 0.0136205 -0.0085 0.0249497
   vertex 0.0130608 -0.0085 0.0249874
   vertex 0.0125 -0.0085 0.025
  endloop
 endfacet
 facet normal 0 -1 0
  outer loop
   vertex 0.0136205 -0.0085 0.0249497
   vertex 0.0113795 -0.0085 0.0249497
   vertex 0.0249497 -0.0085 0.0113795
  endloop
 endfacet
 facet normal 0 -1 -0
  outer loop
   vertex 0.0136205 -0.0085 0.0249497
   vertex 0.0125 -0.0085 0.025
   vertex 0.0113795 -0.0085 0.0249497
  endloop
 endfacet
 facet normal 0 -1 0
  outer loop
   vertex 0.0136205 -0.0085 0.0249497
   vertex 0.0249497 -0.0085 0.0113795
   vertex 0.0249497 -0.0085 0.0136205
  endloop
 endfacet
 facet normal -0 -1 -0
  outer loop
   vertex 0.0152815 -0.0085 0.0246866
   vertex 0.014732 -0.0085 0.0247991
   vertex 0.0141779 -0.0085 0.0248869
  endloop
 endfacet
 facet normal 0 -1 0
  outer loop
   vertex 0.0246866 -0.0085 0.0152815
   vertex 0.0248869 -0.0085 0.0141779
   vertex 0.0247991 -0.0085 0.014732
  endloop
 endfacet
 facet normal 0 -1 0
  outer loop
   vertex 0.0245495 -0.0085 0.0158255
   vertex 0.0248869 -0.0085 0.0141779
   vertex 0.0246866 -0.0085 0.0152815
  endloop
 endfacet
 facet normal -0 -1 -0
  outer loop
   vertex 0.0168922 -0.0085 0.024203
   vertex 0.0163627 -0.0085 0.0243882
   vertex 0.0158255 -0.0085 0.0245495
  endloop
 endfacet
 facet normal -0 -1 -0
  outer loop
   vertex 0.0174128 -0.0085 0.0239941
   vertex 0.0158255 -0.0085 0.0245495
   vertex 0.0152815 -0.0085 0.0246866
  endloop
 endfacet
 facet normal -0 -1 -0
  outer loop
   vertex 0.0174128 -0.0085 0.0239941
   vertex 0.0152815 -0.0085 0.0246866
   vertex 0.0141779 -0.0085 0.0248869
  endloop
 endfacet
 facet normal -0 -1 -0
  outer loop
   vertex 0.0174128 -0.0085 0.0239941
   vertex 0.0168922 -0.0085 0.024203
   vertex 0.0158255 -0.0085 0.0245495
  endloop
 endfacet
 facet normal 0 -1 0
  outer loop
   vertex 0.0239941 -0.0085 0.0174128
   vertex 0.0243882 -0.0085 0.0163627
   vertex 0.024203 -0.0085 0.0168922
  endloop
 endfacet
 facet normal -0 -1 -0
  outer loop
   vertex 0.0184234 -0.0085 0.0235074
   vertex 0.0179236 -0.0085 0.0237621
   vertex 0.0174128 -0.0085 0.0239941
  endloop
 endfacet
 facet normal 0 -1 0
  outer loop
   vertex 0.0235074 -0.0085 0.0184234
   vertex 0.0249497 -0.0085 0.0136205
   vertex 0.0248869 -0.0085 0.0141779
  endloop
 endfacet
 facet normal 0 -1 0
  outer loop
   vertex 0.0235074 -0.0085 0.0184234
   vertex 0.0245495 -0.0085 0.0158255
   vertex 0.0243882 -0.0085 0.0163627
  endloop
 endfacet
 facet normal 0 -1 0
  outer loop
   vertex 0.0235074 -0.0085 0.0184234
   vertex 0.0239941 -0.0085 0.0174128
   vertex 0.0237621 -0.0085 0.0179236
  endloop
 endfacet
 facet normal 0 -1 0
  outer loop
   vertex 0.0235074 -0.0085 0.0184234
   vertex 0.0248869 -0.0085 0.0141779
   vertex 0.0245495 -0.0085 0.0158255
  endloop
 endfacet
 facet normal 0 -1 0
  outer loop
   vertex 0.0235074 -0.0085 0.0184234
   vertex 0.0243882 -0.0085 0.0163627
   vertex 0.0239941 -0.0085 0.0174128
  endloop
 endfacet
 facet normal -0 -1 -0
  outer loop
   vertex 0.0189112 -0.0085 0.0232306
   vertex 0.0141779 -0.0085 0.0248869
   vertex 0.0136205 -0.0085 0.0249497
  endloop
 endfacet
 facet normal -0 -1 -0
  outer loop
   vertex 0.0189112 -0.0085 0.0232306
   vertex 0.0174128 -0.0085 0.0239941
   vertex 0.0141779 -0.0085 0.0248869
  endloop
 endfacet
 facet normal -0 -1 -0
  outer loop
   vertex 0.0189112 -0.0085 0.0232306
   vertex 0.0184234 -0.0085 0.0235074
   vertex 0.0174128 -0.0085 0.0239941
  endloop
 endfacet
 facet normal -0 -1 -0
  outer loop
   vertex 0.0207243 -0.0085 0.0219134
   vertex 0.0202936 -0.0085 0.0222729
   vertex 0.0198473 -0.0085 0.0226127
  endloop
 endfacet
 facet normal -0 -1 -0
  outer loop
   vertex 0.0207243 -0.0085 0.0219134
   vertex 0.0198473 -0.0085 0.0226127
   vertex 0.0193862 -0.0085 0.0229321
  endloop
 endfacet
 facet normal -0 -1 -0
  outer loop
   vertex 0.0207243 -0.0085 0.0219134
   vertex 0.0193862 -0.0085 0.0229321
   vertex 0.0189112 -0.0085 0.0232306
  endloop
 endfacet
 facet normal 0 -1 0
  outer loop
   vertex 0.0207243 -0.0085 0.0219134
   vertex 0.0136205 -0.0085 0.0249497
   vertex 0.0249497 -0.0085 0.0136205
  endloop
 endfacet
 facet normal -0 -1 -0
  outer loop
   vertex 0.0207243 -0.0085 0.0219134
   vertex 0.0189112 -0.0085 0.0232306
   vertex 0.0136205 -0.0085 0.0249497
  endloop
 endfacet
 facet normal 0 -1 0
  outer loop
   vertex 0.0207243 -0.0085 0.0219134
   vertex 0.0249497 -0.0085 0.0136205
   vertex 0.0235074 -0.0085 0.0184234
  endloop
 endfacet
 facet normal 0 -1 0
  outer loop
   vertex 0.0219134 -0.0085 0.0207243
   vertex 0.0232306 -0.0085 0.0189112
   vertex 0.0229321 -0.0085 0.0193862
  endloop
 endfacet
 facet normal 0 -1 0
  outer loop
   vertex 0.0219134 -0.0085 0.0207243
   vertex 0.0229321 -0.0085 0.0193862
   vertex 0.0226127 -0.0085 0.0198473
  endloop
 endfacet
 facet normal 0 -1 0
  outer loop
   vertex 0.0219134 -0.0085 0.0207243
   vertex 0.0226127 -0.0085 0.0198473
   vertex 0.0222729 -0.0085 0.0202936
  endloop
 endfacet
 facet normal 0 -1 0
  outer loop
   vertex 0.0211383 -0.0085 0.0215349
   vertex 0.0207243 -0.0085 0.0219134
   vertex 0.0235074 -0.0085 0.0184234
  endloop
 endfacet
 facet normal 0 -1 0
  outer loop
   vertex 0.0215349 -0.0085 0.0211383
   vertex 0.0232306 -0.0085 0.0189112
   vertex 0.0219134 -0.0085 0.0207243
  endloop
 endfacet
 facet normal 0 -1 0
  outer loop
   vertex 0.0215349 -0.0085 0.0211383
   vertex 0.0235074 -0.0085 0.0184234
   vertex 0.0232306 -0.0085 0.0189112
  endloop
 endfacet
 facet normal 0 -1 0
  outer loop
   vertex 0.0215349 -0.0085 0.0211383
   vertex 0.0211383 -0.0085 0.0215349
   vertex 0.0235074 -0.0085 0.0184234
  endloop
 endfacet
 facet normal 0 1 0
  outer loop
   vertex 0.00386172 0.0255 0.00346507
   vertex 0.00346507 0.0255 0.00386172
   vertex 0.00427576 0.0255 0.00308661
  endloop
 endfacet
 facet normal -0 1 -0
  outer loop
   vertex 0.00346507 0.0255 0.00386172
   vertex 0.00308661 0.0255 0.00427576
   vertex 0.00272711 0.0255 0.00470637
  endloop
 endfacet
 facet normal 0 1 0
  outer loop
   vertex 0.00427576 0.0255 0.00308661
   vertex 0.00346507 0.0255 0.00386172
   vertex 0.0051527 0.0255 0.00238729
  endloop
 endfacet
 facet normal 0 1 0
  outer loop
   vertex 0.00470637 0.0255 0.00272711
   vertex 0.00427576 0.0255 0.00308661
   vertex 0.0051527 0.0255 0.00238729
  endloop
 endfacet
 facet normal -0 1 -0
  outer loop
   vertex 0.00272711 0.0255 0.00470637
   vertex 0.00238729 0.0255 0.0051527
   vertex 0.00206784 0.0255 0.0056138
  endloop
 endfacet
 facet normal 0 1 0
  outer loop
   vertex 0.00346507 0.0255 0.00386172
   vertex 0.00272711 0.0255 0.00470637
   vertex 0.00608875 0.0255 0.00176939
  endloop
 endfacet
 facet normal 0 1 0
  outer loop
   vertex 0.0051527 0.0255 0.00238729
   vertex 0.00346507 0.0255 0.00386172
   vertex 0.00608875 0.0255 0.00176939
  endloop
 endfacet
 facet normal 0 1 0
  outer loop
   vertex 0.0056138 0.0255 0.00206784
   vertex 0.0051527 0.0255 0.00238729
   vertex 0.00608875 0.0255 0.00176939
  endloop
 endfacet
 facet normal -0 1 -0
  outer loop
   vertex 0.00206784 0.0255 0.0056138
   vertex 0.00176939 0.0255 0.00608875
   vertex 0.00149256 0.0255 0.00657665
  endloop
 endfacet
 facet normal -0 1 -0
  outer loop
   vertex 0.00206784 0.0255 0.0056138
   vertex 0.00149256 0.0255 0.00657665
   vertex 0.00123789 0.0255 0.00707645
  endloop
 endfacet
 facet normal 0 1 0
  outer loop
   vertex 0.00657665 0.0255 0.00149256
   vertex 0.00608875 0.0255 0.00176939
   vertex 0.0075872 0.0255 0.0010059
  endloop
 endfacet
 facet normal 0 1 0
  outer loop
   vertex 0.00707645 0.0255 0.00123789
   vertex 0.00657665 0.0255 0.00149256
   vertex 0.0075872 0.0255 0.0010059
  endloop
 endfacet
 facet normal -0 1 -0
  outer loop
   vertex 0.00272711 0.0255 0.00470637
   vertex 0.00206784 0.0255 0.0056138
   vertex 0.0010059 0.0255 0.0075872
  endloop
 endfacet
 facet normal -0 1 -0
  outer loop
   vertex 0.00608875 0.0255 0.00176939
   vertex 0.00272711 0.0255 0.00470637
   vertex 0.0010059 0.0255 0.0075872
  endloop
 endfacet
 facet normal -0 1 -0
  outer loop
   vertex 0.00206784 0.0255 0.0056138
   vertex 0.00123789 0.0255 0.00707645
   vertex 0.0010059 0.0255 0.0075872
  endloop
 endfacet
 facet normal -0 1 -0
  outer loop
   vertex 0.0075872 0.0255 0.0010059
   vertex 0.00608875 0.0255 0.00176939
   vertex 0.000797065 0.0255 0.0081078
  endloop
 endfacet
 facet normal -0 1 -0
  outer loop
   vertex 0.00608875 0.0255 0.00176939
   vertex 0.0010059 0.0255 0.0075872
   vertex 0.000797065 0.0255 0.0081078
  endloop
 endfacet
 facet normal 0 1 0
  outer loop
   vertex 0.0075872 0.0255 0.0010059
   vertex 0.000797065 0.0255 0.0081078
   vertex 0.0086373 0.0255 0.000611795
  endloop
 endfacet
 facet normal 0 1 0
  outer loop
   vertex 0.0081078 0.0255 0.000797065
   vertex 0.0075872 0.0255 0.0010059
   vertex 0.0086373 0.0255 0.000611795
  endloop
 endfacet
 facet normal -0 1 -0
  outer loop
   vertex 0.0086373 0.0255 0.000611795
   vertex 0.000797065 0.0255 0.0081078
   vertex 0.000611795 0.0255 0.0086373
  endloop
 endfacet
 facet normal 0 1 0
  outer loop
   vertex 0.00917455 0.0255 0.000450465
   vertex 0.0086373 0.0255 0.000611795
   vertex 0.0097185 0.0255 0.0003134
  endloop
 endfacet
 facet normal -0 1 -0
  outer loop
   vertex 0.000611795 0.0255 0.0086373
   vertex 0.000450465 0.0255 0.00917455
   vertex 0.0003134 0.0255 0.0097185
  endloop
 endfacet
 facet normal -0 1 -0
  outer loop
   vertex 0.0086373 0.0255 0.000611795
   vertex 0.000611795 0.0255 0.0086373
   vertex 0.0003134 0.0255 0.0097185
  endloop
 endfacet
 facet normal 0 1 0
  outer loop
   vertex 0.0102681 0.0255 0.00020088
   vertex 0.0097185 0.0255 0.0003134
   vertex 0.0108221 0.0255 0.000113129
  endloop
 endfacet
 facet normal 0 1 0
  outer loop
   vertex 0.0097185 0.0255 0.0003134
   vertex 0.0086373 0.0255 0.000611795
   vertex 0.0108221 0.0255 0.000113129
  endloop
 endfacet
 facet normal 0 1 0
  outer loop
   vertex 0.0086373 0.0255 0.000611795
   vertex 0.0003134 0.0255 0.0097185
   vertex 0.0108221 0.0255 0.000113129
  endloop
 endfacet
 facet normal -0 1 -0
  outer loop
   vertex 0.0003134 0.0255 0.0097185
   vertex 0.00020088 0.0255 0.0102681
   vertex 0.000113129 0.0255 0.0108221
  endloop
 endfacet
 facet normal -0 1 -0
  outer loop
   vertex 0.0003134 0.0255 0.0097185
   vertex 0.000113129 0.0255 0.0108221
   vertex 5.03195e-05 0.0255 0.0113795
  endloop
 endfacet
 facet normal 0 1 0
  outer loop
   vertex 0.0113795 0.0255 5.03195e-05
   vertex 0.0108221 0.0255 0.000113129
   vertex 0.0119392 0.0255 1.25847e-05
  endloop
 endfacet
 facet normal -0 1 0
  outer loop
   vertex 0.0125 0.0255 0
   vertex 0.0119392 0.0255 1.25847e-05
   vertex 0.0130608 0.0255 1.25847e-05
  endloop
 endfacet
 facet normal 0 1 0
  outer loop
   vertex 0.0119392 0.0255 1.25847e-05
   vertex 0.0108221 0.0255 0.000113129
   vertex 0.0130608 0.0255 1.25847e-05
  endloop
 endfacet
 facet normal -0 1 0
  outer loop
   vertex 0.0003134 0.0255 0.0097185
   vertex 5.03195e-05 0.0255 0.0113795
   vertex 0.000113129 0.0255 0.0141779
  endloop
 endfacet
 facet normal -0 1 0
  outer loop
   vertex 1.25847e-05 0.0255 0.0130608
   vertex 5.03195e-05 0.0255 0.0136205
   vertex 0.000113129 0.0255 0.0141779
  endloop
 endfacet
 facet normal -0 1 0
  outer loop
   vertex 0 0.0255 0.0125
   vertex 1.25847e-05 0.0255 0.0130608
   vertex 0.000113129 0.0255 0.0141779
  endloop
 endfacet
 facet normal -0 1 0
  outer loop
   vertex 1.25847e-05 0.0255 0.0119392
   vertex 0 0.0255 0.0125
   vertex 0.000113129 0.0255 0.0141779
  endloop
 endfacet
 facet normal -0 1 0
  outer loop
   vertex 5.03195e-05 0.0255 0.0113795
   vertex 1.25847e-05 0.0255 0.0119392
   vertex 0.000113129 0.0255 0.0141779
  endloop
 endfacet
 facet normal -0 1 -0
  outer loop
   vertex 0.0108221 0.0255 0.000113129
   vertex 0.0003134 0.0255 0.0097185
   vertex 0.000113129 0.0255 0.0141779
  endloop
 endfacet
 facet normal 0 1 0
  outer loop
   vertex 0.0141779 0.0255 0.000113129
   vertex 0.0136205 0.0255 5.03195e-05
   vertex 0.014732 0.0255 0.00020088
  endloop
 endfacet
 facet normal 0 1 0
  outer loop
   vertex 0.0136205 0.0255 5.03195e-05
   vertex 0.0130608 0.0255 1.25847e-05
   vertex 0.0152815 0.0255 0.0003134
  endloop
 endfacet
 facet normal -0 1 0
  outer loop
   vertex 0.0130608 0.0255 1.25847e-05
   vertex 0.0108221 0.0255 0.000113129
   vertex 0.0152815 0.0255 0.0003134
  endloop
 endfacet
 facet normal 0 1 0
  outer loop
   vertex 0.014732 0.0255 0.00020088
   vertex 0.0136205 0.0255 5.03195e-05
   vertex 0.0152815 0.0255 0.0003134
  endloop
 endfacet
 facet normal 0 1 0
  outer loop
   vertex 0.0108221 0.0255 0.000113129
   vertex 0.000113129 0.0255 0.0141779
   vertex 0.0152815 0.0255 0.0003134
  endloop
 endfacet
 facet normal -0 1 0
  outer loop
   vertex 0.000113129 0.0255 0.0141779
   vertex 0.00020088 0.0255 0.014732
   vertex 0.0003134 0.0255 0.0152815
  endloop
 endfacet
 facet normal 0 1 0
  outer loop
   vertex 0.0152815 0.0255 0.0003134
   vertex 0.000113129 0.0255 0.0141779
   vertex 0.0158255 0.0255 0.000450465
  endloop
 endfacet
 facet normal -0 1 0
  outer loop
   vertex 0.000113129 0.0255 0.0141779
   vertex 0.0003134 0.0255 0.0152815
   vertex 0.000611795 0.0255 0.0163627
  endloop
 endfacet
 facet normal -0 1 0
  outer loop
   vertex 0.0003134 0.0255 0.0152815
   vertex 0.000450465 0.0255 0.0158255
   vertex 0.000611795 0.0255 0.0163627
  endloop
 endfacet
 facet normal 0 1 0
  outer loop
   vertex 0.0163627 0.0255 0.000611795
   vertex 0.0158255 0.0255 0.000450465
   vertex 0.0168922 0.0255 0.000797065
  endloop
 endfacet
 facet normal 0 1 0
  outer loop
   vertex 0.0158255 0.0255 0.000450465
   vertex 0.000113129 0.0255 0.0141779
   vertex 0.0168922 0.0255 0.000797065
  endloop
 endfacet
 facet normal 0 1 0
  outer loop
   vertex 0.000113129 0.0255 0.0141779
   vertex 0.000611795 0.0255 0.0163627
   vertex 0.0168922 0.0255 0.000797065
  endloop
 endfacet
 facet normal -0 1 0
  outer loop
   vertex 0.0168922 0.0255 0.000797065
   vertex 0.000611795 0.0255 0.0163627
   vertex 0.000797065 0.0255 0.0168922
  endloop
 endfacet
 facet normal 0 1 0
  outer loop
   vertex 0.0168922 0.0255 0.000797065
   vertex 0.000797065 0.0255 0.0168922
   vertex 0.0174128 0.0255 0.0010059
  endloop
 endfacet
 facet normal 0 1 0
  outer loop
   vertex 0.0179236 0.0255 0.00123789
   vertex 0.0174128 0.0255 0.0010059
   vertex 0.0184234 0.0255 0.00149256
  endloop
 endfacet
 facet normal 0 1 0
  outer loop
   vertex 0.0174128 0.0255 0.0010059
   vertex 0.000797065 0.0255 0.0168922
   vertex 0.0184234 0.0255 0.00149256
  endloop
 endfacet
 facet normal 0 1 0
  outer loop
   vertex 0.000797065 0.0255 0.0168922
   vertex 0.0010059 0.0255 0.0174128
   vertex 0.0184234 0.0255 0.00149256
  endloop
 endfacet
 facet normal -0 1 0
  outer loop
   vertex 0.00123789 0.0255 0.0179236
   vertex 0.00149256 0.0255 0.0184234
   vertex 0.00176939 0.0255 0.0189112
  endloop
 endfacet
 facet normal 0 1 0
  outer loop
   vertex 0.0189112 0.0255 0.00176939
   vertex 0.0184234 0.0255 0.00149256
   vertex 0.0193862 0.0255 0.00206784
  endloop
 endfacet
 facet normal -0 1 0
  outer loop
   vertex 0.0184234 0.0255 0.00149256
   vertex 0.0010059 0.0255 0.0174128
   vertex 0.00238729 0.0255 0.0198473
  endloop
 endfacet
 facet normal -0 1 0
  outer loop
   vertex 0.00176939 0.0255 0.0189112
   vertex 0.00206784 0.0255 0.0193862
   vertex 0.00238729 0.0255 0.0198473
  endloop
 endfacet
 facet normal -0 1 0
  outer loop
   vertex 0.0010059 0.0255 0.0174128
   vertex 0.00123789 0.0255 0.0179236
   vertex 0.00238729 0.0255 0.0198473
  endloop
 endfacet
 facet normal -0 1 0
  outer loop
   vertex 0.00123789 0.0255 0.0179236
   vertex 0.00176939 0.0255 0.0189112
   vertex 0.00238729 0.0255 0.0198473
  endloop
 endfacet
 facet normal 0 1 0
  outer loop
   vertex 0.0198473 0.0255 0.00238729
   vertex 0.0193862 0.0255 0.00206784
   vertex 0.0202936 0.0255 0.00272711
  endloop
 endfacet
 facet normal 0 1 0
  outer loop
   vertex 0.0193862 0.0255 0.00206784
   vertex 0.0184234 0.0255 0.00149256
   vertex 0.0202936 0.0255 0.00272711
  endloop
 endfacet
 facet normal 0 1 0
  outer loop
   vertex 0.0184234 0.0255 0.00149256
   vertex 0.00238729 0.0255 0.0198473
   vertex 0.0202936 0.0255 0.00272711
  endloop
 endfacet
 facet normal -0 1 0
  outer loop
   vertex 0.0202936 0.0255 0.00272711
   vertex 0.00238729 0.0255 0.0198473
   vertex 0.00272711 0.0255 0.0202936
  endloop
 endfacet
 facet normal 0 1 0
  outer loop
   vertex 0.0202936 0.0255 0.00272711
   vertex 0.00272711 0.0255 0.0202936
   vertex 0.0207243 0.0255 0.00308661
  endloop
 endfacet
 facet normal -0 1 0
  outer loop
   vertex 0.00308661 0.0255 0.0207243
   vertex 0.00346507 0.0255 0.0211383
   vertex 0.00386172 0.0255 0.0215349
  endloop
 endfacet
 facet normal -0 1 0
  outer loop
   vertex 0.00272711 0.0255 0.0202936
   vertex 0.00308661 0.0255 0.0207243
   vertex 0.00386172 0.0255 0.0215349
  endloop
 endfacet
 facet normal 0 1 0
  outer loop
   vertex 0.0215349 0.0255 0.00386172
   vertex 0.0211383 0.0255 0.00346507
   vertex 0.0219134 0.0255 0.00427576
  endloop
 endfacet
 facet normal -0 1 0
  outer loop
   vertex 0.0207243 0.0255 0.00308661
   vertex 0.00272711 0.0255 0.0202936
   vertex 0.00427576 0.0255 0.0219134
  endloop
 endfacet
 facet normal -0 1 0
  outer loop
   vertex 0.00272711 0.0255 0.0202936
   vertex 0.00386172 0.0255 0.0215349
   vertex 0.00427576 0.0255 0.0219134
  endloop
 endfacet
 facet normal 0 1 0
  outer loop
   vertex 0.0219134 0.0255 0.00427576
   vertex 0.0211383 0.0255 0.00346507
   vertex 0.0222729 0.0255 0.00470637
  endloop
 endfacet
 facet normal -0 1 0
  outer loop
   vertex 0.00427576 0.0255 0.0219134
   vertex 0.00470637 0.0255 0.0222729
   vertex 0.0051527 0.0255 0.0226127
  endloop
 endfacet
 facet normal 0 1 0
  outer loop
   vertex 0.0226127 0.0255 0.0051527
   vertex 0.0222729 0.0255 0.00470637
   vertex 0.0229321 0.0255 0.0056138
  endloop
 endfacet
 facet normal -0 1 0
  outer loop
   vertex 0.00427576 0.0255 0.0219134
   vertex 0.0051527 0.0255 0.0226127
   vertex 0.0056138 0.0255 0.0229321
  endloop
 endfacet
 facet normal 0 1 0
  outer loop
   vertex 0.0232306 0.0255 0.00608875
   vertex 0.0229321 0.0255 0.0056138
   vertex 0.0235074 0.0255 0.00657665
  endloop
 endfacet
 facet normal 0 1 -0
  outer loop
   vertex 0.0235074 0.0255 0.00657665
   vertex 0.0229321 0.0255 0.0056138
   vertex 0.00657665 0.0255 0.0235074
  endloop
 endfacet
 facet normal 0 1 -0
  outer loop
   vertex 0.0211383 0.0255 0.00346507
   vertex 0.0207243 0.0255 0.00308661
   vertex 0.00657665 0.0255 0.0235074
  endloop
 endfacet
 facet normal -0 1 0
  outer loop
   vertex 0.0056138 0.0255 0.0229321
   vertex 0.00608875 0.0255 0.0232306
   vertex 0.00657665 0.0255 0.0235074
  endloop
 endfacet
 facet normal -0 1 0
  outer loop
   vertex 0.0207243 0.0255 0.00308661
   vertex 0.00427576 0.0255 0.0219134
   vertex 0.00657665 0.0255 0.0235074
  endloop
 endfacet
 facet normal 0 1 -0
  outer loop
   vertex 0.0222729 0.0255 0.00470637
   vertex 0.0211383 0.0255 0.00346507
   vertex 0.00657665 0.0255 0.0235074
  endloop
 endfacet
 facet normal 0 1 -0
  outer loop
   vertex 0.0229321 0.0255 0.0056138
   vertex 0.0222729 0.0255 0.00470637
   vertex 0.00657665 0.0255 0.0235074
  endloop
 endfacet
 facet normal -0 1 0
  outer loop
   vertex 0.00427576 0.0255 0.0219134
   vertex 0.0056138 0.0255 0.0229321
   vertex 0.00657665 0.0255 0.0235074
  endloop
 endfacet
 facet normal -0 1 0
  outer loop
   vertex 0.00657665 0.0255 0.0235074
   vertex 0.00707645 0.0255 0.0237621
   vertex 0.0075872 0.0255 0.0239941
  endloop
 endfacet
 facet normal 0 1 0
  outer loop
   vertex 0.0235074 0.0255 0.00657665
   vertex 0.00657665 0.0255 0.0235074
   vertex 0.024203 0.0255 0.0081078
  endloop
 endfacet
 facet normal 0 1 0
  outer loop
   vertex 0.0237621 0.0255 0.00707645
   vertex 0.0235074 0.0255 0.00657665
   vertex 0.024203 0.0255 0.0081078
  endloop
 endfacet
 facet normal 0 1 0
  outer loop
   vertex 0.0239941 0.0255 0.0075872
   vertex 0.0237621 0.0255 0.00707645
   vertex 0.024203 0.0255 0.0081078
  endloop
 endfacet
 facet normal 0 1 0
  outer loop
   vertex 0.0243882 0.0255 0.0086373
   vertex 0.024203 0.0255 0.0081078
   vertex 0.0246866 0.0255 0.0097185
  endloop
 endfacet
 facet normal 0 1 0
  outer loop
   vertex 0.0245495 0.0255 0.00917455
   vertex 0.0243882 0.0255 0.0086373
   vertex 0.0246866 0.0255 0.0097185
  endloop
 endfacet
 facet normal 0 1 0
  outer loop
   vertex 0.0247991 0.0255 0.0102681
   vertex 0.0246866 0.0255 0.0097185
   vertex 0.0248869 0.0255 0.0108221
  endloop
 endfacet
 facet normal -0 1 0
  outer loop
   vertex 0.0097185 0.0255 0.0246866
   vertex 0.0102681 0.0255 0.0247991
   vertex 0.0108221 0.0255 0.0248869
  endloop
 endfacet
 facet normal -0 1 0
  outer loop
   vertex 0.00917455 0.0255 0.0245495
   vertex 0.0097185 0.0255 0.0246866
   vertex 0.0108221 0.0255 0.0248869
  endloop
 endfacet
 facet normal -0 1 0
  outer loop
   vertex 0.0086373 0.0255 0.0243882
   vertex 0.00917455 0.0255 0.0245495
   vertex 0.0108221 0.0255 0.0248869
  endloop
 endfacet
 facet normal -0 1 0
  outer loop
   vertex 0.0081078 0.0255 0.024203
   vertex 0.0086373 0.0255 0.0243882
   vertex 0.0108221 0.0255 0.0248869
  endloop
 endfacet
 facet normal -0 1 0
  outer loop
   vertex 0.0075872 0.0255 0.0239941
   vertex 0.0081078 0.0255 0.024203
   vertex 0.0108221 0.0255 0.0248869
  endloop
 endfacet
 facet normal -0 1 0
  outer loop
   vertex 0.024203 0.0255 0.0081078
   vertex 0.00657665 0.0255 0.0235074
   vertex 0.0113795 0.0255 0.0249497
  endloop
 endfacet
 facet normal -0 1 0
  outer loop
   vertex 0.00657665 0.0255 0.0235074
   vertex 0.0075872 0.0255 0.0239941
   vertex 0.0113795 0.0255 0.0249497
  endloop
 endfacet
 facet normal 0 1 -0
  outer loop
   vertex 0.0246866 0.0255 0.0097185
   vertex 0.024203 0.0255 0.0081078
   vertex 0.0113795 0.0255 0.0249497
  endloop
 endfacet
 facet normal 0 1 -0
  outer loop
   vertex 0.0248869 0.0255 0.0108221
   vertex 0.0246866 0.0255 0.0097185
   vertex 0.0113795 0.0255 0.0249497
  endloop
 endfacet
 facet normal -0 1 0
  outer loop
   vertex 0.0075872 0.0255 0.0239941
   vertex 0.0108221 0.0255 0.0248869
   vertex 0.0113795 0.0255 0.0249497
  endloop
 endfacet
 facet normal 0 1 -0
  outer loop
   vertex 0.0249497 0.0255 0.0113795
   vertex 0.0248869 0.0255 0.0108221
   vertex 0.0113795 0.0255 0.0249497
  endloop
 endfacet
 facet normal -0 1 0
  outer loop
   vertex 0.0113795 0.0255 0.0249497
   vertex 0.0119392 0.0255 0.0249874
   vertex 0.0125 0.0255 0.025
  endloop
 endfacet
 facet normal 0 1 0
  outer loop
   vertex 0.0249874 0.0255 0.0130608
   vertex 0.025 0.0255 0.0125
   vertex 0.0249497 0.0255 0.0136205
  endloop
 endfacet
 facet normal 0 1 0
  outer loop
   vertex 0.0249874 0.0255 0.0119392
   vertex 0.0249497 0.0255 0.0113795
   vertex 0.0249497 0.0255 0.0136205
  endloop
 endfacet
 facet normal 0 1 -0
  outer loop
   vertex 0.025 0.0255 0.0125
   vertex 0.0249874 0.0255 0.0119392
   vertex 0.0249497 0.0255 0.0136205
  endloop
 endfacet
 facet normal 0 1 0
  outer loop
   vertex 0.0125 0.0255 0.025
   vertex 0.0130608 0.0255 0.0249874
   vertex 0.0136205 0.0255 0.0249497
  endloop
 endfacet
 facet normal -0 1 0
  outer loop
   vertex 0.0249497 0.0255 0.0113795
   vertex 0.0113795 0.0255 0.0249497
   vertex 0.0136205 0.0255 0.0249497
  endloop
 endfacet
 facet normal 0 1 0
  outer loop
   vertex 0.0113795 0.0255 0.0249497
   vertex 0.0125 0.0255 0.025
   vertex 0.0136205 0.0255 0.0249497
  endloop
 endfacet
 facet normal 0 1 -0
  outer loop
   vertex 0.0249497 0.0255 0.0136205
   vertex 0.0249497 0.0255 0.0113795
   vertex 0.0136205 0.0255 0.0249497
  endloop
 endfacet
 facet normal 0 1 0
  outer loop
   vertex 0.0141779 0.0255 0.0248869
   vertex 0.014732 0.0255 0.0247991
   vertex 0.0152815 0.0255 0.0246866
  endloop
 endfacet
 facet normal 0 1 0
  outer loop
   vertex 0.0247991 0.0255 0.014732
   vertex 0.0248869 0.0255 0.0141779
   vertex 0.0246866 0.0255 0.0152815
  endloop
 endfacet
 facet normal 0 1 0
  outer loop
   vertex 0.0246866 0.0255 0.0152815
   vertex 0.0248869 0.0255 0.0141779
   vertex 0.0245495 0.0255 0.0158255
  endloop
 endfacet
 facet normal 0 1 0
  outer loop
   vertex 0.0158255 0.0255 0.0245495
   vertex 0.0163627 0.0255 0.0243882
   vertex 0.0168922 0.0255 0.024203
  endloop
 endfacet
 facet normal 0 1 0
  outer loop
   vertex 0.0152815 0.0255 0.0246866
   vertex 0.0158255 0.0255 0.0245495
   vertex 0.0174128 0.0255 0.0239941
  endloop
 endfacet
 facet normal 0 1 0
  outer loop
   vertex 0.0141779 0.0255 0.0248869
   vertex 0.0152815 0.0255 0.0246866
   vertex 0.0174128 0.0255 0.0239941
  endloop
 endfacet
 facet normal 0 1 0
  outer loop
   vertex 0.0158255 0.0255 0.0245495
   vertex 0.0168922 0.0255 0.024203
   vertex 0.0174128 0.0255 0.0239941
  endloop
 endfacet
 facet normal 0 1 0
  outer loop
   vertex 0.024203 0.0255 0.0168922
   vertex 0.0243882 0.0255 0.0163627
   vertex 0.0239941 0.0255 0.0174128
  endloop
 endfacet
 facet normal 0 1 0
  outer loop
   vertex 0.0174128 0.0255 0.0239941
   vertex 0.0179236 0.0255 0.0237621
   vertex 0.0184234 0.0255 0.0235074
  endloop
 endfacet
 facet normal 0 1 0
  outer loop
   vertex 0.0248869 0.0255 0.0141779
   vertex 0.0249497 0.0255 0.0136205
   vertex 0.0235074 0.0255 0.0184234
  endloop
 endfacet
 facet normal 0 1 0
  outer loop
   vertex 0.0243882 0.0255 0.0163627
   vertex 0.0245495 0.0255 0.0158255
   vertex 0.0235074 0.0255 0.0184234
  endloop
 endfacet
 facet normal 0 1 0
  outer loop
   vertex 0.0237621 0.0255 0.0179236
   vertex 0.0239941 0.0255 0.0174128
   vertex 0.0235074 0.0255 0.0184234
  endloop
 endfacet
 facet normal 0 1 0
  outer loop
   vertex 0.0245495 0.0255 0.0158255
   vertex 0.0248869 0.0255 0.0141779
   vertex 0.0235074 0.0255 0.0184234
  endloop
 endfacet
 facet normal 0 1 0
  outer loop
   vertex 0.0239941 0.0255 0.0174128
   vertex 0.0243882 0.0255 0.0163627
   vertex 0.0235074 0.0255 0.0184234
  endloop
 endfacet
 facet normal 0 1 0
  outer loop
   vertex 0.0136205 0.0255 0.0249497
   vertex 0.0141779 0.0255 0.0248869
   vertex 0.0189112 0.0255 0.0232306
  endloop
 endfacet
 facet normal 0 1 0
  outer loop
   vertex 0.0141779 0.0255 0.0248869
   vertex 0.0174128 0.0255 0.0239941
   vertex 0.0189112 0.0255 0.0232306
  endloop
 endfacet
 facet normal 0 1 0
  outer loop
   vertex 0.0174128 0.0255 0.0239941
   vertex 0.0184234 0.0255 0.0235074
   vertex 0.0189112 0.0255 0.0232306
  endloop
 endfacet
 facet normal 0 1 0
  outer loop
   vertex 0.0198473 0.0255 0.0226127
   vertex 0.0202936 0.0255 0.0222729
   vertex 0.0207243 0.0255 0.0219134
  endloop
 endfacet
 facet normal 0 1 0
  outer loop
   vertex 0.0193862 0.0255 0.0229321
   vertex 0.0198473 0.0255 0.0226127
   vertex 0.0207243 0.0255 0.0219134
  endloop
 endfacet
 facet normal 0 1 0
  outer loop
   vertex 0.0189112 0.0255 0.0232306
   vertex 0.0193862 0.0255 0.0229321
   vertex 0.0207243 0.0255 0.0219134
  endloop
 endfacet
 facet normal 0 1 0
  outer loop
   vertex 0.0249497 0.0255 0.0136205
   vertex 0.0136205 0.0255 0.0249497
   vertex 0.0207243 0.0255 0.0219134
  endloop
 endfacet
 facet normal 0 1 0
  outer loop
   vertex 0.0136205 0.0255 0.0249497
   vertex 0.0189112 0.0255 0.0232306
   vertex 0.0207243 0.0255 0.0219134
  endloop
 endfacet
 facet normal 0 1 0
  outer loop
   vertex 0.0235074 0.0255 0.0184234
   vertex 0.0249497 0.0255 0.0136205
   vertex 0.0207243 0.0255 0.0219134
  endloop
 endfacet
 facet normal 0 1 0
  outer loop
   vertex 0.0229321 0.0255 0.0193862
   vertex 0.0232306 0.0255 0.0189112
   vertex 0.0219134 0.0255 0.0207243
  endloop
 endfacet
 facet normal 0 1 0
  outer loop
   vertex 0.0226127 0.0255 0.0198473
   vertex 0.0229321 0.0255 0.0193862
   vertex 0.0219134 0.0255 0.0207243
  endloop
 endfacet
 facet normal 0 1 0
  outer loop
   vertex 0.0222729 0.0255 0.0202936
   vertex 0.0226127 0.0255 0.0198473
   vertex 0.0219134 0.0255 0.0207243
  endloop
 endfacet
 facet normal 0 1 0
  outer loop
   vertex 0.0235074 0.0255 0.0184234
   vertex 0.0207243 0.0255 0.0219134
   vertex 0.0211383 0.0255 0.0215349
  endloop
 endfacet
 facet normal 0 1 0
  outer loop
   vertex 0.0219134 0.0255 0.0207243
   vertex 0.0232306 0.0255 0.0189112
   vertex 0.0215349 0.0255 0.0211383
  endloop
 endfacet
 facet normal 0 1 0
  outer loop
   vertex 0.0232306 0.0255 0.0189112
   vertex 0.0235074 0.0255 0.0184234
   vertex 0.0215349 0.0255 0.0211383
  endloop
 endfacet
 facet normal 0 1 0
  outer loop
   vertex 0.0235074 0.0255 0.0184234
   vertex 0.0211383 0.0255 0.0215349
   vertex 0.0215349 0.0255 0.0211383
  endloop
 endfacet
endsolid
